<?xml version="1.0" encoding="UTF-8" standalone="no"?>
<svg
   xmlns:dc="http://purl.org/dc/elements/1.1/"
   xmlns:cc="http://creativecommons.org/ns#"
   xmlns:rdf="http://www.w3.org/1999/02/22-rdf-syntax-ns#"
   xmlns:svg="http://www.w3.org/2000/svg"
   xmlns="http://www.w3.org/2000/svg"
   xmlns:xlink="http://www.w3.org/1999/xlink"
   xmlns:sodipodi="http://sodipodi.sourceforge.net/DTD/sodipodi-0.dtd"
   xmlns:inkscape="http://www.inkscape.org/namespaces/inkscape"
   width="2.24667in"
   height="3.41333in"
   viewBox="0 0 674 1024"
   version="1.1"
   id="svg30"
   sodipodi:docname="canopy_fig.svg"
   inkscape:version="0.92.3 (2405546, 2018-03-11)">
  <metadata
     id="metadata36">
    <rdf:RDF>
      <cc:Work
         rdf:about="">
        <dc:format>image/svg+xml</dc:format>
        <dc:type
           rdf:resource="http://purl.org/dc/dcmitype/StillImage" />
        <dc:title />
      </cc:Work>
    </rdf:RDF>
  </metadata>
  <defs
     id="defs34">
    <linearGradient
       inkscape:collect="always"
       id="linearGradient4696">
      <stop
         style="stop-color:#000000;stop-opacity:1;"
         offset="0"
         id="stop4692" />
      <stop
         style="stop-color:#000000;stop-opacity:0;"
         offset="1"
         id="stop4694" />
    </linearGradient>
    <linearGradient
       inkscape:collect="always"
       xlink:href="#linearGradient4696"
       id="linearGradient4698"
       x1="-5.6785111"
       y1="922.15918"
       x2="-9.0777674"
       y2="276.59622"
       gradientUnits="userSpaceOnUse" />
  </defs>
  <sodipodi:namedview
     pagecolor="#ffffff"
     bordercolor="#666666"
     borderopacity="1"
     objecttolerance="10"
     gridtolerance="10"
     guidetolerance="10"
     inkscape:pageopacity="0"
     inkscape:pageshadow="2"
     inkscape:window-width="1533"
     inkscape:window-height="845"
     id="namedview32"
     showgrid="false"
     showborder="false"
     inkscape:zoom="1.4328593"
     inkscape:cx="118.60991"
     inkscape:cy="159.73681"
     inkscape:window-x="67"
     inkscape:window-y="27"
     inkscape:window-maximized="1"
     inkscape:current-layer="layer3" />
  <g
     inkscape:groupmode="layer"
     id="layer3"
     inkscape:label="tree"
     sodipodi:insensitive="true"
     style="display:inline">
    <path
       id="Selection"
       d="m 331.25001,-26.750042 c 0,0 1,12 1,12 -4.9,-1.71 -5.92,-2.95 -7,-8 -2.7,7.48 4.36,7.99 5,19 0,0 -8,-1 -8,-1 2.35,4.68000006 3.9,5.41000006 9,6 -1.14,4.01 -1.68,4.53 -5,7 0,0 2,3 2,3 0,0 6,-2 6,-2 0,0 0,8 0,8 0,0 -5,-1 -5,-1 -2.67,3.72 -4.1,0.93 -9,-2 0,0 -3.11,2.54 -3.11,2.54 0,0 -11.89,-1.54 -11.89,-1.54 0,0 4.81,10 4.81,10 0,0 -0.81,8 -0.81,8 4.76,-2.86 7.02,-4.42 9,2 0,0 9,-2 9,-2 0,0 0,8 0,8 0,0 -8,-2 -8,-2 0,0 5,7 5,7 -5.99,1.07 -9.71,2.16 -13,-4 -9.16,1.42 -3.83,4.07 -14,-1 0,0 2,8 2,8 -3.45,1.45 -2.72,2.65 -2,6 0,0 4,-1 4,-1 0,0 2,8.999996 2,8.999996 0,0 8,-1.999996 8,-1.999996 0,0 -1,7.999992 -1,7.999992 0,0 -7,-0.999996 -7,-0.999996 2.13,1.599996 9.39,4.089996 12,4.529996 2.33,0.3 3.94,-0.83 5.98,0 3.75,1.66 4.38,8.209996 -3.07,5.119996 -3.41,-1.42 -3.22,-1.39 -6.91,-1.65 0,0 4,6.999996 4,6.999996 0,0 -12,-1 -12,-1 0,0 6,8.999996 6,8.999996 0,0 6,-2 6,-2 0,0 0,4 0,4 0,0 2,-4 2,-4 0,0 4,0 4,0 -0.53,4.44 -1.66,6.349996 3,7.999996 0,0 0,4.999996 0,4.999996 -6.97,-0.98 -15.65,-1.38 -18,-8.999992 0,0 -5,0 -5,0 2.22,4.219996 5.45,8.669992 2.36,13.349992 -0.84,1.29 -1.85,2.32 -3.49,2.38 -2.72,0.1 -8.18,-4.25 -10.87,-5.73 0,0 -4,6 -4,6 3.11,4.45 2.26,4.92 1,10 0,0 3,7 3,7 0,0 5,-2 5,-2 -0.51,4.36 -0.73,5.03 -4,8 0,0 11,-1 11,-1 -2.37,5.1 -4.62,5.69 -10,6 0,0 1,5 1,5 -4.75,0.67 -8.34,2.25 -10,7 -4.44,0 -7.31,0.72 -11,-2 -8.97,1.08 -6.46,-2.32 -15,-7 0,0 1,6 1,6 0,0 4,1 4,1 0,0 -1,7 -1,7 5.23,-0.09 5.7,1.09 7,6 -3.66,1.52 -2.95,3.34 -3,7 0,0 9,-7 9,-7 0,0 0,5 0,5 0,0 5,2 5,2 0,0 0,-4 0,-4 0,0 7,2 7,2 2.3,-8.42 5.55,-4.09 10,-2 0,0 0,-5 0,-5 -4.9,-2.62 -4.87,-4.8 -5,-10 4.42,2.46 5,5.28 6,10 0,0 3,-6 3,-6 0,0 4,0 4,0 -0.65,4.65 -3.83,12.48 -8.46,14.49 -1.54,0.67 -5.26,0.24 -7.29,0.51 0,0 0,3.72 0,3.72 0,0 -6.25,3.82 -6.25,3.82 0,0 -17,6.46 -17,6.46 0,0 9,0 9,0 0,0 4,4 4,4 0,0 4,-4 4,-4 -1.18,9.77 -1.21,9.58 -10,15 0,0 4,4 4,4 4.25,-4.45 3.15,-1.87 7,-2.77 4.23,-0.99 3.48,-3.89 9,-1.23 0,0 2,-6 2,-6 2.79,-0.61 7.61,-1.79 9.38,-4.3 1.74,-2.71 -0.44,-4.84 0,-7.44 0,0 2.62,-5.26 2.62,-5.26 0,0 4,0 4,0 0,0 0,4 0,4 0,0 2,-4 2,-4 7.56,4.17 2.78,7.66 -2,11 0,0 2,8.15 2,8.15 -2.07,-0.19 -6.06,-0.56 -7.83,0 -5,2.13 -3.2,6.27 -13.17,6.85 0,0 -3,6 -3,6 2.35,1.94 1.81,2.14 1,5 0,0 18,-1 18,-1 -2.09,14.23 -21.75,5.15 -30,3 0,0 2,5 2,5 -11.02,0.84 -13.67,-4.91 -22,-10 1.91,6.39 1.61,5.17 -1,11 8.82,-2.06 5.7,2.37 4,8 0,0 9,-2 9,-2 -1.13,5.43 -2.99,7.62 -8,10 3.59,4.62 5.36,-1.2 9,4 3.09,-0.85 6.06,-2.43 9,-1.12 6.71,-0.71 7.61,1.09 10.72,0 1.73,-0.78 4.61,-3.75 6.51,-2.06 0.61,0.55 0.77,1.43 0.73,2.21 -0.2,4.57 -5.73,4.05 -8.95,5 -9.85,2.88 -8.8,6.36 -14.05,7.87 -4.44,1.27 -9.74,-0.59 -13.96,-1.9 0,0 0,5 0,5 -7.24,-0.18 -9.42,-1.5 -15,-6 -1.21,4.6 -0.58,4.74 1,9 0,0 5,-1 5,-1 0,0 -2,7 -2,7 3.35,3.79 2.24,4.76 -1,8 0,0 4,3 4,3 4.02,-3.51 12.51,-2.14 18.79,-6.26 5.34,-3.5 2.28,-7.45 9.21,-9.74 -0.1,1.71 -0.09,3.33 -0.74,4.96 -1.26,3.18 -8.3,11.04 -11.26,13.04 0,0 4.25,5.18 4.25,5.18 0,0 6.01,-3.05 6.01,-3.05 0,0 6.74,0 6.74,0 0,0 -1,-8.13 -1,-8.13 0,0 3,0 3,0 0,0 -1,11 -1,11 8.24,-2.46 7.25,-6.59 10.87,-6.89 3.03,-0.26 10.97,8.19 4.02,9.79 -1.54,0.08 -3.66,-0.77 -5.42,0 -2.16,1.44 -2.89,4.91 -4.36,6.83 -0.78,1.01 -8.13,6.19 -9.32,6.52 -4.32,1.19 -13.31,-3.04 -17.79,-4.25 0,0 -6,1 -6,1 0,0 13.74,18 13.74,18 0,0 2.26,1 2.26,1 0,0 0,4 0,4 0,0 7,-5 7,-5 0,0 -1,4 -1,4 0,0 4,0 4,0 0,0 0,-6 0,-6 3.65,2.29 3.61,3.89 4,8 6.64,1.82 6.15,5.42 -1,6 -1.46,2.37 -1.95,3.16 -5.02,3.16 -2.6,0 -20.58,-5.82 -22.69,-7.29 -1.51,-1.06 -1.45,-1.47 -2.29,-2.87 0,0 -4,1 -4,1 -1.54,-4.12 -2.4,-4.57 -6,-7 0.04,4.09 -0.29,8.09 3.28,10.87 2.9,2.26 11.08,4.67 12.16,7.91 0.73,2.2 -1.77,3.38 -3.48,3.8 -4.26,1.05 -6.36,-0.53 -8.96,-3.58 -8.77,2.05 -4.76,-1.89 -13,-6 2.34,7.86 5.19,6.25 2,14 0,0 14.99,2.65 14.99,2.65 3.26,1 4.67,3 8.1,2.94 7.73,-0.12 10.55,-6.15 15.91,-1.59 3.77,-3.28 4.91,-0.97 6,3 0,0 10,0 10,0 0,0 -2,7 -2,7 -12.43,-2.22 -15.95,1.94 -24,2 0,0 -1,3 -1,3 -5.92,-1.35 -10.8,-4.88 -12,2 0,0 -8,-1 -8,-1 0,0 -18,14 -18,14 0,0 0,2 0,2 0,0 6,4 6,4 0,0 2,-8 2,-8 0,0 8.1,4.18 8.1,4.18 0,0 15.9,-4.18 15.9,-4.18 -0.21,6.02 -3.41,11.84 -9,14.62 0,0 -5.72,2 -5.72,2 -3.57,1.8 -4.42,3.5 -9.28,3.23 -3.15,-0.17 -5.27,-1.47 -8,-2.85 0.3,4.88 4.83,7.33 8,11 3.13,-3.84 4.71,-6.03 8,-1 0,0 6,-1 6,-1 1.32,-3.74 1.49,-4.13 5,-6 0,0 0,4 0,4 0,0 4,1 4,1 0,0 8,2 8,2 4.78,-5.52 5.7,-2.67 11,0 -0.43,-1.35 -2.14,-5.8 -1.94,-6.96 0.54,-3.04 2.8,-1.51 3.94,0 0,0 6,-2.04 6,-2.04 0,0 -1.85,11 -1.85,11 0,0 0,9 0,9 0,0 7.85,-5 7.85,-5 0,0 -1,8 -1,8 2.71,-3.51 2.51,-4.58 7,-6 0,0 -3,14 -3,14 0,0 -5,-3 -5,-3 0,0 0,7 0,7 0,0 -5,-1 -5,-1 -2.32,3.12 -4.05,1.04 -6.45,-1.1 -4.76,-4.24 -8.96,-8.63 -12.58,-13.9 -1.33,4.74 0.9,10.82 0,13.96 -3.13,10.47 -18.6,-1.69 -23.97,-3.96 2.73,10.38 7.09,7.05 5,16 0,0 -7,-5 -7,-5 0,0 -10,-1 -10,-1 -0.29,3.49 -0.03,4.01 -3,6 0,0 8,0 8,0 0.36,4.46 0.58,4.98 5,6 -1.28,4.33 -2.61,5.18 -6,8 0,0 2,4 2,4 0,0 8.63,-3.5 8.63,-3.5 0,0 5.37,-3.5 5.37,-3.5 0,0 -1.31,5.44 -1.31,5.44 0,0 -17.69,10.56 -17.69,10.56 0,0 1,3 1,3 0,0 5,-2 5,-2 0,0 0,3 0,3 0,0 3,0 3,0 0,0 5,-4 5,-4 0,0 1,7 1,7 0,0 8,-12 8,-12 0,0 0,11 0,11 3.26,-3.31 4.43,-3.96 9,-5 0,0 -1,-4 -1,-4 0,0 5,1 5,1 0,0 0,-4 0,-4 4.54,0.12 6.5,-0.16 9,4 0,0 -13.82,10.47 -13.82,10.47 0,0 -6.29,7.5 -6.29,7.5 0,0 -6.89,3.03 -6.89,3.03 6.05,3.7 5.71,-1.14 14,0 2.48,-2.76 2.96,-3.5 6,-1 0,0 4,-11 4,-11 0,0 5,0 5,0 0,0 -1,4 -1,4 0,0 4,0 4,0 0,0 -1,5 -1,5 2.71,-1.13 2.45,-1.13 3,-4 0,0 7,1 7,1 0,0 -1,-7 -1,-7 0,0 5,0 5,0 1.55,-4.58 3.49,-6.77 7,-10 0,0 -4,-11 -4,-11 5.47,-0.19 13.21,-2.4 15,-8 0,0 3,0 3,0 0.33,5.21 -0.32,10.53 -3.98,14.54 -8.1,8.86 -11.72,4.26 -12.02,14.46 7.2,-2.16 5.79,-4.72 12,-3 0,0 2,-6 2,-6 0,0 9,0 9,0 0,0 1,-1 1,-1 0,0 -1,-11 -1,-11 0,0 10,-2 10,-2 0,0 0,9 0,9 -5.84,1.34 -6.8,6.59 -11,10.91 -6.37,6.54 -17.07,14.9 -26,17.09 0,0 1,7 1,7 0,0 -6,-4 -6,-4 0,0 0,3 0,3 -4.34,-1.14 -4.67,-1.51 -9,0 0,0 2,6 2,6 0,0 -7,2 -7,2 0,0 1,-5 1,-5 0,0 -3,-3 -3,-3 -5.7,3.17 -6.32,1.33 -12,0 0,0 -2,6 -2,6 0,0 -10,-4 -10,-4 3.1,7.52 5.61,5.26 8.33,8.54 1.43,1.74 1.42,5.23 1.67,7.46 0,0 -8,-1 -8,-1 0,0 1,4 1,4 -7.79,-1.11 -9.74,-0.07 -15,-7 0,0 0,8 0,8 -4.59,0.31 -6.44,1.42 -9,-3 0,0 -1,3 -1,3 -5.01,-1.29 -5.78,-2.01 -9,-6 0,0 -1,3 -1,3 0,0 -9,-2 -9,-2 -1.49,-3.91 -3,-4.07 -7,-4 4.08,4.44 10.94,6.34 6,10 1.99,2.97 2.51,2.71 5.67,3 0,0 0,2.98 0,2.98 0,0 0,1.91 0,1.91 0.43,7.89 6.64,-2.13 7.96,-3.3 1.33,-1.18 1.85,-1.09 3.37,-1.59 0,0 -3,16 -3,16 0,0 -4,0 -4,0 0,0 -1,9 -1,9 0,0 9.92,1.12 9.92,1.12 0,0 6.08,-3.12 6.08,-3.12 0,0 1,5 1,5 0,0 2,0 2,0 0,0 1,-4 1,-4 0,0 8,1 8,1 0,0 -1,-8 -1,-8 9.31,1.67 7.44,0.48 15,0.85 2.01,-0.06 5.08,0.63 6.9,0 4.83,-1.21 2.52,-4.99 10.1,-4.85 3.26,-2.77 7.44,-2.04 11,0 0,0 5,-1 5,-1 0,0 0,4 0,4 0,0 -3,0 -3,0 0,0 0,4 0,4 -7.5,0.61 -8.63,2.79 -16,1 0,0 -5,3 -5,3 0.35,1.74 1.39,4.98 0.74,6.59 -2.17,5.3 -10.66,4.87 -14.74,5.9 -4.5,1.14 -3.79,2.19 -9,1.51 -3.03,4.77 -5.3,2.65 -10,3.56 0,0 -6,1.5 -6,1.5 -2.86,0.8 -11.06,0.36 -14,0 -6.05,-1.49 -5.02,-3.6 -13,-4.06 3.24,6.17 1.66,5.02 0,11 0,0 3,-0.94 3,-0.94 9.85,-2.42 4.56,7.23 5.38,9.4 0.45,1.18 1.12,1.15 1.62,1.54 0,0 3,-3 3,-3 1.53,6.7 4.86,5.19 12,6 0,0 0,6 0,6 -4.28,0.66 -5.77,1.18 -8,5 0,0 5,1 5,1 0,0 4,-3 4,-3 0,0 -1,4 -1,4 3.84,-0.74 5.74,-0.58 8,-4 0,0 3,2 3,2 0,0 2,-5 2,-5 0,0 3,0 3,0 0,0 1,4 1,4 0,0 1,-8 1,-8 0,0 3,2 3,2 0,0 4,0 4,0 0,0 3,-4 3,-4 -0.13,-4.27 0.23,-4.96 4,-7 0,0 1,4 1,4 0,0 5,-1 5,-1 0.23,-4.12 1.08,-4.07 5,-4 0,0 1,-9 1,-9 0,0 6,0 6,0 0,0 0,-7 0,-7 7.52,-0.08 9.73,-1.01 10,-9 0,0 4,3 4,3 3.77,-1.51 3.69,-2.05 4,-6 0,0 4,0 4,0 0,0 -1,4 -1,4 0,0 2,3 2,3 0,0 9,-5 9,-5 -1.17,3.64 -1.96,4.28 -5.02,6.62 -6.47,4.95 -8.49,3.4 -15.98,3.38 0,0 0,10 0,10 -7.74,2.79 -11.21,12.71 -23,11 0,0 -1,8 -1,8 0,0 11,-3 11,-3 0,0 1,-2 1,-2 0,0 3,0 3,0 0,0 2,6 2,6 10.79,-3.79 8.4,-6.51 13.45,-9.36 3.88,-2.2 13.93,-1.65 16.55,-9.64 0,0 7,2 7,2 -4.47,8.54 -10.16,7.22 -15,8.76 -4.72,1.51 -4.49,2.86 -10,2.24 0,0 -5,10 -5,10 0,0 8,0 8,0 -3.48,8.59 -7.9,4.81 -13,13 0,0 8,1 8,1 0,0 5,-1 5,-1 0,0 7,-6 7,-6 0,0 0,6 0,6 0,0 4,1 4,1 0,0 1,-6 1,-6 0,0 3,3 3,3 0,0 21,-3 21,-3 -0.54,1.53 -0.63,2.33 -1.71,3.7 -3.22,4.12 -17.06,11.3 -22.29,12.09 -4.38,0.66 -7.14,0.24 -11,-1.79 -3.99,1.97 -4.87,1.29 -9,0 -3.82,6.05 -5.53,1.76 -10.09,1.78 -3.49,-0.39 -2.99,1.26 -8.91,0 0,0 -12,1.22 -12,1.22 0,0 0,8 0,8 0,0 4,0 4,0 0,0 0,-6 0,-6 3.02,1.17 7.41,2.19 6,6 0,0 0,6 0,6 0,0 -4,-2 -4,-2 0,0 -1.35,2.99 -1.35,2.99 -2.72,9.05 8.3,1.01 10.35,0 0,0 -1,6.01 -1,6.01 0,0 4,3 4,3 2.43,-2.58 2.41,-2.84 6,-3 1.22,-7.71 3.52,-12.02 12,-11 0,0 3,-3 3,-3 0,0 1,5 1,5 6.24,-1.62 8.26,-3.55 13,2 3.14,-8 -4.42,-10.84 4,-14 0,0 1,6 1,6 8.52,-3.05 10.21,-3.66 11,-13 6.67,-1.67 7.91,-5.58 10.72,-4.52 2.21,0.84 1.88,3.69 1.68,5.52 -0.58,5.29 -0.79,7.1 -6.4,7 0,0 5.82,10 5.82,10 1.14,3.3 0.09,15.81 -1.83,18.7 -1.13,1.72 -5.1,3.81 -6.99,5.11 -5.37,3.71 -15.68,10.19 -22,10.96 -4.69,0.99 -6.66,-0.83 -9.71,0 -4.9,0.7 -4.99,5.69 -10.29,1.23 0,0 3,-1 3,-1 0,0 -3,-5 -3,-5 0,0 -4,1 -4,1 0,0 0,-4 0,-4 0,0 -3,-2 -3,-2 -4.35,8.6 2.04,11.45 4,19 -7.91,-3.35 -8.16,-6.11 -18,-7 0,0 0,4 0,4 -5.49,-3.05 -8.42,-7.83 -9,-14 -1.55,0.43 -4.03,1.41 -5.57,0.72 -4.16,-1.87 -0.39,-7.89 -9.43,-6.72 2.14,3.54 9.9,13.55 2,14 0,0 -12,-2 -12,-2 2.11,7.91 4.95,5.77 10,11 0,0 4,-1 4,-1 0,0 0,5 0,5 -4.74,-0.67 -5.78,-1.52 -9,-5 0,0 -4,-1 -4,-1 0,0 -1,4 -1,4 0,0 -9,-4 -9,-4 0,0 -9.97,2.98 -9.97,2.98 0,0 -5.23,-2.15 -5.23,-2.15 0,0 -9.8,0 -9.8,0 0,0 3,13.17 3,13.17 0,0 -6,-2 -6,-2 1.19,6.73 4.2,4.04 11,3 -0.31,3.73 -0.76,7.39 -5,4 -4.92,3.93 -5.18,3.66 -11,1 0,0 3,8 3,8 4.07,0.33 9.73,3.05 4.68,7.15 -2.44,1.98 -6.12,1.51 -8.39,2.37 -2.7,1.01 -4.54,3.32 -6.29,5.48 6.63,-1.11 13.42,0.89 20,2 3.01,-4.91 4.61,-1.51 8.98,-3.51 3.41,-1.54 4.89,-4.74 6.34,-5.58 1.92,-1.12 2.63,1.03 2.68,1.09 0,0 6,-1 6,-1 0,0 -4,9 -4,9 0,0 7,-2 7,-2 0,0 -1,6 -1,6 0,0 7.55,-6.62 7.55,-6.62 2.59,-1.62 5,-0.56 7.02,-4.45 1.56,-3.01 1.74,-14.77 6.76,-16.59 4.7,-1.71 2.11,7.11 1.67,8.66 0,0 5,1 5,1 2.1,-6.2 2.85,-8.12 9,-11 0,0 0,-8 0,-8 7.44,4.05 4.17,9.21 4,16 0,0 -10.05,5.11 -10.05,5.11 0,0 -8.95,0.89 -8.95,0.89 0,0 0,5 0,5 0,0 7,2 7,2 -1.75,8.01 -4.55,4.24 -8,9 0,0 10,1 10,1 3.03,-4.52 4.82,-1.98 8.87,-3.74 5.76,-2.51 2.36,-7.86 11.13,-3.26 0,0 0,-5 0,-5 7.13,4.09 3.16,10.75 -3,13 -4.49,-6.61 -9.64,2.1 -15,4.11 -2.91,1.09 -9.28,0.57 -13,0.89 0,0 3,6 3,6 0,0 -9,1.48 -9,1.48 0,0 -11,0.52 -11,0.52 0,0 7,6 7,6 2.61,-1.24 2.51,-1.47 4.91,0 7.23,0.4 2.94,5.88 0,8.81 -4.45,4.23 -6.43,3.57 -11.91,3.19 0,0 1,4 1,4 0,0 -11,5 -11,5 0,0 5,1 5,1 0,0 0,3.2 0,3.2 2.18,-0.33 5.87,-0.84 7.8,0 2.54,1.57 2.89,4.92 -3.8,4.8 -2.32,4.12 -3.76,3.64 -8,5 0,0 5,0 5,0 0,0 -3,12 -3,12 -7.69,0.08 -6.5,0.09 -11,5 0,0 14,2 14,2 0,0 1,-5 1,-5 0,0 3,0 3,0 0,0 0,7 0,7 0,0 6,-1 6,-1 0,0 5,-4 5,-4 0,0 1,4 1,4 1.83,-4.98 -1.36,-6.9 4,-10 0,0 3,5 3,5 -1.39,-10.53 -1.44,-11.65 9,-15 -2.24,-4.89 -5.94,-9.56 0,-13 0,0 1,3 1,3 0,0 2,-4 2,-4 0,0 5,4 5,4 0,0 5,-2 5,-2 0,0 0,-2 0,-2 0,0 -3,-5 -3,-5 7.18,-1.19 8.93,-6.54 9,-13 0,0 6,2 6,2 4.38,-5.59 6.14,-6.07 13,-7 0.9,-4.51 1.95,-7.53 6,-10 -3.09,-2.92 -8.65,-6.65 -11,-1 -6.12,-3.53 -9.38,-12.58 -1.79,-16.8 0,0 11.44,-3.22 11.44,-3.22 4.09,-2.68 2.96,-6.7 -0.65,-8.98 0,0 0,-3 0,-3 0,0 8,0 8,0 0,0 4,-7 4,-7 11.68,-0.83 7.55,-6.78 23.04,-9 0,0 0,11 0,11 0,0 0.96,17 0.96,17 -14.49,0.72 -26.66,15.74 -34.05,27 0,0 -5.32,7.28 -5.32,7.28 -4.33,6.47 -5.76,10.59 -14.63,9.72 0,0 -8,7 -8,7 0,0 7,3 7,3 0,0 -4,16 -4,16 0,0 -4,0 -4,0 0,0 0,-3 0,-3 0,0 -4,0 -4,0 0.4,1.73 1.97,6.57 1.8,7.95 -0.87,6.61 -8.9,1.64 -11.84,0 0.13,2.46 0.51,5.76 0,8.04 -1.59,6.37 -12.97,17.27 -19.96,15.45 -6.27,-1.64 -19.51,-12.31 -25,-4.44 0,0 5,0 5,0 0,0 -3,4 -3,4 0,0 1,4 1,4 0,0 -4,-4 -4,-4 -5.54,2.75 -7.03,0.31 -12,-2 0,0 1,5 1,5 -3.21,0.28 -3.73,-0.06 -5,3 0,0 -9,-3 -9,-3 0,0 1,6 1,6 5.22,0.28 4.19,2.63 0,4 0,0 0,2 0,2 0,0 4,0 4,0 -0.7,8.71 -4.91,7.07 -5.96,12.02 -0.83,3.91 2.42,5.09 2.96,11.98 -4.2,1.45 -5.77,3.83 -7,8 6.57,-2.64 14.71,-1.98 20,3 0,0 3,-1 3,-1 0,0 -1,-10 -1,-10 0,0 6,-1 6,-1 0,0 0,-9 0,-9 0,0 7,0 7,0 0,0 0,9 0,9 3.21,-3.35 3.79,-3.35 7,0 0,0 3,-6 3,-6 0,0 -3,-9 -3,-9 0,0 11,5 11,5 0,0 1,-4 1,-4 0,0 -3,0 -3,0 0,0 0,-3 0,-3 0,0 15,-11 15,-11 0,0 -2,5 -2,5 0,0 1,8 1,8 0,0 4,1 4,1 5.21,-5.06 0.62,-5.09 3,-15 0,0 -6,-8 -6,-8 3.61,-1.35 11.76,-10.29 13,-14 0,0 7,1 7,1 0,0 1,-5 1,-5 0,0 5,2 5,2 0,0 -2,-6 -2,-6 0,0 7,2 7,2 0,0 3,-3 3,-3 0,0 0,7 0,7 3.36,-0.99 4.69,-2.01 7,1 2.64,-3.18 2.71,-3.92 3,-8 0,0 3,0 3,0 0,0 -2,-9 -2,-9 6.17,-1.06 6.7,-4.19 11.59,-7.54 1.85,-1.27 4.87,-2.82 5.9,-4.76 1.45,-2.73 0.63,-6.51 1.25,-8.61 1.13,-3.85 5.98,-6.26 9.26,-8.07 4.86,-2.69 16.26,-6.01 13.3,3.98 -0.3,1.02 -0.65,1.96 -1.26,2.86 -2.04,3 -4.56,3.04 -6.75,4.86 -2.3,1.92 -5.41,7.41 -6.29,10.28 0,0 -6,-1 -6,-1 -1.3,4.91 -1.77,6.09 -7,6 1.78,7.71 -0.71,6.28 -4,12 0,0 8,-2 8,-2 0,0 -3,5 -3,5 0,0 5,4 5,4 0,0 4,-6 4,-6 0,0 -1,-4 -1,-4 7.17,-1.18 6.42,-3.85 6,-10 0,0 10,4 10,4 0,0 4,-3 4,-3 0,4.4 0.59,19.53 -0.84,22.68 -2.43,5.36 -13.26,11.43 -17.57,21.32 -3.94,9.04 -4.41,22.02 -16.59,23 0,0 0,3 0,3 0,0 -11,-1 -11,-1 0,0 0,6 0,6 0,0 -5,-1 -5,-1 0,0 0,6 0,6 0,0 -8,-5 -8,-5 0,0 2,7 2,7 0,0 -2.26,1.54 -2.26,1.54 0,0 -6.74,12.46 -6.74,12.46 0,0 7,1 7,1 0,0 -5,12 -5,12 0,0 4,2 4,2 1.31,-1.78 0.95,-1.86 3,-1 0,0 0,-13 0,-13 0,0 3,0 3,0 0,0 4,14 4,14 0,0 1,-5 1,-5 0,0 7,-1 7,-1 -2.26,-6.54 -6.27,-3.95 -7,-13 0,0 4,3 4,3 0,0 1,-3 1,-3 0,0 6,5 6,5 0,0 0,-7 0,-7 0,0 4,0 4,0 0,0 -1,-9 -1,-9 0,0 3,0 3,0 0,0 2,9 2,9 7.38,4.08 4.43,7.41 6,14 0,0 2,0 2,0 0,0 4,-3 4,-3 0,0 -1,11 -1,11 0,0 3,0 3,0 0,0 3.49,-9.91 3.49,-9.91 0.57,-5 -4.27,-5.37 1.51,-10.09 -1.33,-3.96 -4.71,-8.09 -1,-11 -0.61,-2.27 -0.9,-4.28 -3.27,-5.4 -2.17,-1.02 -5.89,-0.06 -7.52,-2.91 -1.57,-2.22 -0.59,-5.42 0,-7.69 0,0 2.41,-6 2.41,-6 1.79,-5.77 0.74,-8.29 5.38,-13 0,0 2.09,6 2.09,6 1.51,-4.36 -0.34,-5.99 0,-10 0.72,-5.8 6.77,-9.68 11.91,-11 0,0 -0.84,31 -0.84,31 -0.27,5.88 3.32,14.06 0,19 1.14,5.86 0.68,13.01 0.88,19 0,0 1.22,13 1.22,13 0,0 -1.26,27 -1.26,27 0,0 0.83,9 0.83,9 0.64,6.74 -0.27,12.4 -1.25,19 -0.95,6.42 -2.81,20.47 -8.69,24.11 -1.7,1.05 -12.48,2.01 -14.89,1.89 0,0 0,4.00001 0,4.00001 0,0 -9,-4.00001 -9,-4.00001 0,0 0,4.00001 0,4.00001 0,0 -4,-2.00001 -4,-2.00001 0,0 -5,1 -5,1 -3.83,2.38001 -7.66,0.59001 -12,0 -3.88,5.80001 -12.17,1.62001 -17.83,1.80001 -5.65,-0.23 -2.23,2.81 -13.17,0 -3.05,1.73 -4.67,0.91 -8,1.06 0,0 -17,0 -17,0 0,0 -8,-0.82 -8,-0.82 0,0 -14,-0.84 -14,-0.84 -1.46,-0.13 -2.54,-0.16 -4,0 0,0 -9,2.21 -9,2.21 0,0 -10,1.05 -10,1.05 -7.13,1.29 -6.42,2.50001 -15,2.54001 -6.73,0.03 -7.5,-0.44 -14,2 0,0 22,0 22,0 0,0 28,0.96 28,0.96 0,0 17,-0.96 17,-0.96 0,0 13,1 13,1 0,0 17,-1 17,-1 0,0 15,-0.96 15,-0.96 0,0 11,0.57 11,0.57 0,0 8,-0.96 8,-0.96 0,0 6,0 6,0 0,0 10,0 10,0 0,0 16,1.36 16,1.36 0,0 13,0 13,0 0,0 14,0 14,0 0,0 18,-0.93 18,-0.93 0,0 24,0 24,0 0,0 22,0 22,0 0,0 21,0 21,0 0,0 12,-1.08 12,-1.08 0,0 24,-0.68001 24,-0.68001 0,0 14,0.67001 14,0.67001 0,0 19,-0.75001 19,-0.75001 0,0 9,0 9,0 0,0 34,-1.24 34,-1.24 0,0 16,0 16,0 0,0 -10,-5.90001 -10,-5.90001 -3.37,0.98 -11.61,1.01 -15,0 -3.93,-0.97 -6.12,-2.95 -14,-3.81 -5.15,-0.56 -7.21,2.22 -12,-1.29 0,0 -4,0 -4,0 0,0 -6.28,1.77 -6.28,1.77 0,0 -14,0 -14,0 0,0 -2.72,-0.77 -2.72,-0.77 0,0 -8,0 -8,0 -3.21,4.67 -5.16,0.58 -10.01,0 -6.9,-0.81 -10.96,3.12 -19.99,-1 0,0 -16,3 -16,3 0,0 -2,-6 -2,-6 -3.44,0.95 -4.75,1.76 -8,0 0,0 -5,1 -5,1 0,0 -1,-4 -1,-4 0,0 -2,0 -2,0 0,0 -1,3 -1,3 -7.78,-1.68 -5.84,-1.8 -13,1 0,0 -6.68,-30 -6.68,-30 0,0 -0.64,-9 -0.64,-9 0,0 -3.24,-13 -3.24,-13 0,0 -0.74,-9 -0.74,-9 0,0 -1.4,-7 -1.4,-7 0,0 -2.47,-24 -2.47,-24 0,0 -3.01,-30 -3.01,-30 0,0 0,-9 0,-9 0.01,-3.27 -2.11,-10.97 1.57,-12.83 2.21,-1.12 4.23,1.31 5.35,2.89 2.97,4.19 3.33,8.09 2.26,12.94 0,0 1,1 1,1 0,0 3,-1 3,-1 -1.74,-8.29 -1.52,-19.59 -13,-19 -0.88,-6.68 -3.15,-12.32 4,-16 0,0 -1,6 -1,6 0,0 5,0 5,0 0,0 -1,7 -1,7 0,0 4,0 4,0 1.93,6.72 4.78,6 6.5,10.13 0.89,2.11 2.46,13.23 2.5,15.87 0.05,4.1 -1.25,8.23 3,10 0,0 -2,3 -2,3 0.66,3.66 0.32,9.6 3,12 0,0 1,-11 1,-11 0,0 8,0 8,0 0,0 -1,4 -1,4 0,0 3,3 3,3 -4.31,1.54 -7.16,4.27 -7,9 0,0 8,-2 8,-2 0,0 0,11 0,11 0,0 4,2 4,2 3.9,-6.44 5.6,-13.92 1.66,-20.91 0,0 -4.91,-6.18 -4.91,-6.18 -2.42,-4.12 0.13,-8.82 -6.75,-7.91 0,0 -4,-12 -4,-12 0,0 -4,0 -4,0 -0.71,-7.3 0.59,-7.76 7,-11 0,0 1.98,7.53 1.98,7.53 0,0 4.17,4.81 4.17,4.81 0,0 2.85,9.66 2.85,9.66 4.39,-6.33 2.45,-8.6 0,-15 6.78,-2.73 2.57,-7.24 -0.64,-10.46 -1.13,-1.13 -2.1,-2.57 -3.62,-3.38 -1.36,-0.42 -2.37,-0.18 -3.74,0 -1.85,-3.76 -2.13,-3.99 -6,-5.16 0,0 0,-4 0,-4 0,0 4,0 4,0 0,0 -6,-10 -6,-10 0,0 -9,3 -9,3 0,0 3,-7.77 3,-7.77 0,0 -7.96,0 -7.96,0 0,0 -8.04,-4.23 -8.04,-4.23 0,0 1,-4 1,-4 0,0 -4,-1 -4,-1 0,0 3,-10 3,-10 5.48,1.8 4.15,3.74 7.79,6.86 2.18,1.87 4.07,1.89 5.8,3.1 3.58,2.52 1.82,4.57 10.41,8.04 3.83,-5.7 11.49,-1.07 11.69,4.02 0.17,2.93 -2.13,6.1 0,7.96 1.51,1.37 7.17,1.02 9.31,1.02 0,0 0,9 0,9 0,0 6,-2 6,-2 0,0 -1,-4 -1,-4 0,0 6,2 6,2 0,0 0,5 0,5 0,0 5,-2 5,-2 0,0 4,6 4,6 0,0 5,-4 5,-4 0.83,9.88 7.23,3.88 3,12 0,0 5,0 5,0 0,0 0,6 0,6 0,0 3,-3 3,-3 0,0 4,0 4,0 0,0 -3,5 -3,5 3.22,4.16 5.17,5.17 10,7 -0.89,-4.98 -3.14,-7.65 0,-12 -1.68,-7.2 0.2,-6.14 8,-6 0,0 -4,-10 -4,-10 -6.74,0.21 -5.98,-3.53 -6,-9 0,0 -5,0 -5,0 1.19,-11.98 -8.54,-3.79 -12,-15 -4.3,0.35 -7.48,0.19 -10,4 0,0 -12.43,-3.68 -12.43,-3.68 0,0 -6.57,-9.32 -6.57,-9.32 -0.82,2.76 -0.97,7.09 -4.15,7.96 -4.46,1.23 -8.07,-2.41 -9.85,-5.96 -9.16,0.28 -12.3,-5.3 -19.58,-8.84 -4.44,-2.17 -7.78,-1.61 -11.29,-6.35 -2.07,-2.8 -4.97,-8.01 -3.57,-11.55 1.74,-4.38 6.29,-0.28 6.44,5.74 0,0 6,6 6,6 0,0 -4,-22 -4,-22 0,0 -2,3 -2,3 -7.52,-1.65 -6.59,-5.48 -7.27,-12 0,0 -0.55,-20 -0.55,-20 0,0 0.82,-11 0.82,-11 0,0 7.05,4.88 7.05,4.88 4.02,2.17 10.33,3.93 13.53,6.62 3.66,3.08 7.54,8.8 10.72,12.5 8.07,9.42 10.25,7.47 7.7,20 0,0 5,1 5,1 0,0 -3,9 -3,9 0,0 5,1 5,1 -1.16,3.88 -1.43,4.92 -5,7 0,0 3,6 3,6 0,0 8,-5 8,-5 0,0 2,9 2,9 0,0 1,-6 1,-6 0,0 3,0 3,0 0,0 0,4 0,4 0,0 6,-1 6,-1 0,0 -1,6 -1,6 0,0 6,3 6,3 0,0 0,-5 0,-5 5.8,-0.58 7.05,-0.58 11,4 3.83,-1.34 3.67,-2.09 4,-6 0,0 11,3 11,3 0,0 -1,8 -1,8 4.81,2.26 9.5,5.2 9,11 2.58,3.66 1.34,5.77 1,10 0,0 5,-2 5,-2 0,0 1,4 1,4 0,0 7,-11 7,-11 0,0 -1,-4 -1,-4 0,0 5,1 5,1 0,0 8,-3 8,-3 0,0 0,18 0,18 2.83,-4.38 3.76,-5.68 9,-7 0,0 0,-4 0,-4 0,0 6,3 6,3 0,0 1,-5 1,-5 4.14,0.69 4.71,0.96 6,5 5.27,-3.34 4.13,-0.42 11,2 0,0 4.12,-3 4.12,-3 0.01,-1.64 0.56,-5.41 0,-6.79 -1.47,-4.97 -10.74,-6.01 -15.12,-6.21 0,0 0,-3 0,-3 0,0 6,-1 6,-1 0,0 -1,-10 -1,-10 0,0 -12,4 -12,4 0,0 1,5 1,5 -6.9,-3.75 -6.2,-9.3 -5,-16 -8.46,2.28 -5.29,-6.13 -4,-11 0,0 -16,-2 -16,-2 0,0 1,2 1,2 0,0 -4,-2 -4,-2 0,0 -5,1 -5,1 0,0 -1,-5 -1,-5 0,0 -11,1 -11,1 0,0 -2,-8 -2,-8 -1.7,0.31 -4.34,0.99 -5.99,0.78 -5.9,-0.73 -6.61,-5.77 -3.01,-9.78 0,0 -1,-4 -1,-4 -5.7,2.66 -6.09,-2.55 -7,-7 0,0 -3,0 -3,0 0,0 0,3 0,3 0,0 -6.29,-7.56 -6.29,-7.56 0,0 -9.71,1.36 -9.71,1.36 0,0 -9.9,1.22 -9.9,1.22 0,0 -9.1,8.98 -9.1,8.98 -4.06,-6.84 -8.02,-10.12 -13.34,-15.61 -2.74,-2.84 -5.05,-6.28 -8.66,-8.08 -3.69,-1.83 -9.81,-1.82 -19,-6.5 -1.3,-0.67 -3.41,-1.48 -4.4,-2.53 -1.12,-1.18 -1.5,-2.66 -1.23,-4.25 0.81,-4.8 5.03,-4.09 8.64,-4.02 0,0 7.71,0 7.71,0 0,0 5.32,1.13 5.32,1.13 2.9,0.1 5.33,-1.27 8.96,-0.77 2.54,0.34 7.69,1.82 4,4.63 5.14,4.9 5.82,0.66 11,-2 0,0 -3,4 -3,4 0,0 0,2 0,2 0,0 10,9 10,9 5.18,-9.1 7.31,-1.59 8,4 0,0 8,-3 8,-3 0,0 1,5 1,5 0,0 5,-3 5,-3 -0.25,-3.76 -0.48,-4.1 2,-7 1.03,3.61 2.78,6.69 6.13,8.66 2.31,1.37 6.52,2.17 8.06,3.92 1.02,1.16 2.15,5.63 2.81,7.42 0,0 12,0 12,0 0,0 -2.22,8.77 -2.22,8.77 0,0 5.22,10.23 5.22,10.23 0,0 4,-5 4,-5 0,0 4,0 4,0 0,0 0,5 0,5 0,0 4,-1 4,-1 -0.8,5.46 -0.71,6.74 5,7.81 2.46,-7.51 5.5,-2.91 9.46,0 1.96,1.15 3.35,1.47 5.54,2.19 2.11,-7.33 1.1,-5.81 0,-13 4.38,1.42 4.9,2.63 6,7 4.88,-3.02 7.9,-7.71 10,-13 -4,1.41 -8.75,1.9 -12.92,0.69 -2.95,-0.85 -4.91,-4.1 2.92,-3.69 -6.07,-5.96 -7.72,-4.17 -8,-12 0,0 5,2 5,2 0,0 0,-5 0,-5 0,0 5,-3 5,-3 0,0 -17,-3 -17,-3 -3.88,2.97 -9.39,3.21 -13.83,1.08 -2.17,-1.04 -3.64,-2.96 -6.21,-3.1 -4.36,-0.25 -9.12,3.78 -13.13,4.65 -2.13,0.72 -3.75,0.18 -5.83,0 -7.33,-1.43 -11.66,-2.66 -14,-10.63 0,0 10,4 10,4 0,0 0,-4 0,-4 11.85,5.16 4.02,1.79 14,3 0,0 0,-4 0,-4 0,0 12,0 12,0 0,0 3,-3 3,-3 0,0 -1,-4 -1,-4 0,0 -12,0 -12,0 -1.78,-4.9 -3.55,-2.87 -7.57,-4.35 -5.74,-2.11 -6.96,-5.5 -14.43,-6.34 -6.5,-0.72 -7.22,1.94 -11,-1.31 -3.57,-1.08 -3.14,-2.59 -3,-6 0,0 10,4 10,4 2.29,-6.87 5.1,-9.61 -0.97,-15.56 -2,-1.96 -3.57,-3.16 -6.03,-4.44 0.63,-1.19 0.86,-2.21 2.13,-3.02 3.14,-2.03 9.86,2.37 11.52,5.08 1.82,2.96 1.42,5.65 1.35,8.94 0,0 3,0 3,0 0,0 -1,9 -1,9 0,0 3,-5 3,-5 4.51,1.41 5.02,2.46 6,7 3.21,-2.04 3.92,-2.41 6,1 2.81,-1.33 3.16,-1.61 5,1 0,0 5,-3 5,-3 0.21,3.57 -0.06,4.87 3,7 0,0 0,-6 0,-6 0,0 6,4 6,4 1.99,-2.97 2.51,-2.71 6,-3 0,0 0,-4 0,-4 0,0 9,1 9,1 0,0 -1,-4 -1,-4 0,0 6,1 6,1 -5.99,-7.2 -10.84,-4.37 -14.44,-7.73 -1.95,-1.82 -2.2,-4.79 -2.56,-7.27 6.48,3.63 3.92,5.55 13,6 1.62,-5.78 2.97,-4.35 2,-11 0,0 5,5 5,5 0,0 8.23,-9.27 8.23,-9.27 0,0 1.77,-8.73 1.77,-8.73 -2.86,0.32 -10.3,2.01 -11.98,4.38 -0.84,1.19 -0.8,2.3 -1.02,3.62 -7.98,0.8 -11.82,1.75 -19,5 0,0 2,-11 2,-11 0,0 -9,4 -9,4 0,0 1,4 1,4 0,0 -4,-3 -4,-3 0,0 -17,2 -17,2 1.9,-5.14 1.94,-4.49 1,-10 0,0 5,4 5,4 0,0 2,0 2,0 0,0 6,-11 6,-11 -4.57,0.84 -7.35,0.3 -9,5 0,0 -6.09,-2.21 -6.09,-2.21 0,0 -27.91,5.21 -27.91,5.21 0,0 0,-3 0,-3 -3.95,-0.05 -5.66,0.5 -8,-3 0,0 -3,5 -3,5 -3.8,-0.99 -7.16,-3.24 -11,-3.53 -14.32,-1.08 -16.83,4.82 -21,-6.47 0,0 -8,3 -8,3 0.91,-2.58 1.45,-4.31 4.11,-5.65 4.96,-2.49 8.24,1.85 8.89,-6.35 -12.68,4.07 -16.42,-3.27 -32,-4 0.07,-5.27 -0.32,-7.03 5,-9 2.19,5.69 7.02,4.88 12,4 0,0 0,3 0,3 4.46,-0.23 4.94,-0.38 8,3 0,0 5,0 5,0 0,0 3,0 3,0 2.92,-2.19 2.71,-2.41 3,-6 0,0 3,0 3,0 0,0 -1,7 -1,7 0,0 6,-3 6,-3 0.72,4.98 2.03,5.27 6,8 0,0 4,-3 4,-3 0,0 0,4 0,4 2.99,-4.52 2.84,-4.01 8,-3 0,0 3,-5 3,-5 0,0 -1,-5 -1,-5 8.58,3.29 8.1,6.37 13,13 0,0 -1,-7 -1,-7 5.3,1.62 5.06,2.95 6,8 4.9,-1.65 10.07,-0.36 12,-6 0,0 3,2 3,2 0,0 6,-4 6,-4 -5.2,-1.61 -9.68,-2.07 -13.76,-6.33 -3.49,-3.64 -2.76,-6.15 1.76,-7.67 0.82,3.31 1.1,4.13 4,6 0,0 0,-5 0,-5 0,0 4,0 4,0 0,0 0,4 0,4 5.27,-0.18 5.69,1.46 10,4 0,0 1,-3 1,-3 0,0 5,3 5,3 2.76,-3.83 2.9,-5.16 8,-5 0,0 0,-4 0,-4 0,0 -8,2 -8,2 0,0 2,-3 2,-3 0,0 -1,-5 -1,-5 8.49,-1.92 5.92,-4.7 12,-8 -4.26,-1.36 -6.76,0.87 -11,1.96 -14.64,3.78 -7.39,3.17 -22,3.04 0,0 0,-3 0,-3 0,0 -11,2.01 -11,2.01 0,0 -16,-4.01 -16,-4.01 2.06,-6.99 3.88,-4.11 4,-13 0,0 3,0 3,0 0,0 0,5 0,5 0,0 6,-4 6,-4 0,0 1,3 1,3 2.33,-4.57 2.15,-7.35 7,-10 0,0 3,8 3,8 3.15,-3.31 3.39,-4 8,-5 0,0 -1,4 -1,4 6.93,0.9 9.86,-0.95 9,-8 0,0 5,-1 5,-1 0,0 0,-5 0,-5 -6.38,-0.36 -9.43,-1.11 -10,-8 0,0 -4,-1 -4,-1 0,0 1,6 1,6 -8.25,-2.64 -3.63,-10.2 1,-11.72 3.12,-1.03 6.89,1.64 10,2.72 0,0 -4,-7 -4,-7 0,0 4,2 4,2 5.18,-2.89 7.14,-0.93 10,-6 0,0 -7,-2 -7,-2 0,0 0,-4 0,-4 0,0 3,0 3,0 0,0 -1,-8 -1,-8 0,0 4,1 4,1 0,0 3,-11 3,-11 0,0 -10.42,8.49 -10.42,8.49 -3.15,1.78 -4.54,0.62 -7.07,2.33 -3.88,2.62 -5.38,7.69 -11.51,5.18 0,0 -2,5 -2,5 0,0 -3,-9 -3,-9 0,0 -18,8 -18,8 1.39,-9.46 10.26,-6.73 12,-17 0,0 3,2 3,2 0,0 4,-1 4,-1 0,0 0,-7 0,-7 0,0 -9,0 -9,0 0,0 3,-7 3,-7 0,0 0,-2 0,-2 0,0 -2,-4 -2,-4 0,0 3,3 3,3 4.92,-3.67 8.7,-7.11 15,-8 0,0 2,-6 2,-6 0,0 -5,-2 -5,-2 -3.77,0.83 -5.53,2.12 -9,0 0,0 -17,5 -17,5 0,0 0,3 0,3 0,0 -14,4 -14,4 -0.29,1.73 -0.26,3.03 -1.6,4.42 -1.65,1.7 -5.14,2.07 -7.4,2.62 -10.32,2.48 -8.45,1.96 -19,1.96 0,0 0,-4 0,-4 7.12,-2.62 0.93,-3.66 13,-5 0,0 3,4 3,4 1.12,-5.07 1.92,-5.51 7,-5 0,0 0,-10 0,-10 0,0 3,2 3,2 0,0 3,-3 3,-3 -2.19,-2.39 -2.81,-2.93 0,-5 0,0 0,-7 0,-7 0,0 -11,6.63 -11,6.63 0,0 -14,5.52 -14,5.52 0,0 -19,7.39 -19,7.39 0,0 -17,-1.54 -17,-1.54 0,0 0,-3 0,-3 0,0 -4,0 -4,0 0,0 0,-13 0,-13 0,0 4,0 4,0 0,0 0.64,8.93 0.64,8.93 0,0 7.36,2.07 7.36,2.07 3.23,-2.1 3.29,-3.32 4,-7 0,0 6,0 6,0 0,0 1,-9 1,-9 3.57,0.92 7.86,0.25 10,3 0,0 8,0 8,0 -5.79,-11.06 -7.8,-3.99 -16.41,-7.38 -6.18,-2.43 -4.72,-4.42 -10.59,-6.62 0,0 2,-7 2,-7 0,0 3,0 3,0 0,0 0,3 0,3 7.77,1.3 6.78,6.68 17,7 0,0 -1,-5 -1,-5 0,0 4,0 4,0 0,0 2,6 2,6 4.63,0.25 4.65,1.73 5,6 2.8,-0.77 3.19,-1.44 5,1 0,0 3,-1 3,-1 0,0 -1,-4 -1,-4 0,0 4,4 4,4 0,0 3,-4 3,-4 0,0 -4,-5 -4,-5 0,0 -8,-4 -8,-4 3.07,-1.07 2.93,-0.93 4,-4 -3.42,-0.57 -6.09,-1.1 -4,-5 0,0 0,-9 0,-9 0,0 4,1 4,1 0,0 3,-2 3,-2 0,0 0,4 0,4 0,0 4,0 4,0 0,0 -3,3 -3,3 0,0 1,5 1,5 0,0 3,0 3,0 0.05,4.16 -0.5,5.38 3,8 0,0 4,-3 4,-3 0,0 -1,-4 -1,-4 0,0 5,5 5,5 0,0 5,-6 5,-6 0,0 -4,-6 -4,-6 0,0 6.12,2.3 6.12,2.3 0,0 8.88,-1.3 8.88,-1.3 0,0 0,7 0,7 0,0 7,2 7,2 0,0 -2,-5 -2,-5 0,0 6,1 6,1 1.79,-7.51 2.09,-10.74 11,-6 0,0 2,-7 2,-7 0,0 -10,-2 -10,-2 -3.44,4.71 -8.5,0.13 -8,-6 -5.35,-2.42 -6.51,-2.96 -7,-9 11.92,-1.68 7.85,-3 15,-7 0,0 1,-6 1,-6 -2.76,-3.01 -2.19,-3.29 -1,-7 -1.61,0.29 -5.29,0.88 -6.63,1.53 -2.16,1.06 -3.31,3.25 -5.47,4.26 -4.39,2.04 -7.57,-1.62 -9.9,-4.79 0,0 -4,1 -4,1 0,0 -1,-10 -1,-10 0,0 7,4 7,4 0,0 6,-6 6,-6 0,0 -3,-2 -3,-2 -5.35,2.99 -6.46,1.48 -10.72,3.31 -3,1.3 -7.92,5.48 -14.28,7.57 -6.05,1.99 -9.29,-3.95 -12,5.12 0,0 -11.97,-2.49 -11.97,-2.49 0,0 -13.07,4.09 -13.07,4.09 0,0 -20.96,-3.6 -20.96,-3.6 0,0 0,-3 0,-3 0,0 -5.13,0 -5.13,0 0,0 0,-9 0,-9 0,0 -1.78,-8 -1.78,-8 0,0 0,-13 0,-13 0,0 2.91,0 2.91,0 0.85,6.04 2.09,6.81 8,7 0,0 3,7 3,7 0,0 -3,-2 -3,-2 0,0 -1,6 -1,6 0,0 9,-3 9,-3 0,0 -1,9 -1,9 4.58,-2.89 7.95,-2.9 11,2 0,0 7,0 7,0 0,0 -1,-8 -1,-8 0,0 8,0 8,0 0,0 0,4 0,4 0,0 6,-2 6,-2 0,0 0,7 0,7 4.3,-1.1 5.25,-1.53 6,-6 0,0 5,0 5,0 0,0 -4,-13 -4,-13 0,0 5,1 5,1 0,0 -1,4 -1,4 3.39,2.82 3.41,3.37 8,3 0,0 -4,-10 -4,-10 6.23,-0.9 10.09,-2.54 12,-9 0,0 -7.12,1.87 -7.12,1.87 0,0 -9.88,0 -9.88,0 0,0 0,-5.87 0,-5.87 0,0 -3,0 -3,0 0,0 0,-4 0,-4 3.95,0.05 5.66,-0.5 8,3 0,0 2,-6 2,-6 0,0 3,0 3,0 0,0 1.59,2.98 1.59,2.98 0,0 11.41,4.02 11.41,4.02 0,0 1,-7 1,-7 0,0 5,4 5,4 4.81,-1.83 5.63,-3.63 11,-3 2.65,-2.53 3.69,-3.3 6,0 3.7,-3.71 3.79,-3.51 9,-3 0,0 -1,-4 -1,-4 0,0 3,2 3,2 1.26,-6.4 -7.13,-8.76 -12,-9 0,0 0,6 0,6 0,0 -4,0 -4,0 -2.09,-6.02 -6.76,-4.38 -12,-4 0,0 1,-4 1,-4 10.79,1.3 7.21,-7.57 19,-11 0,0 0,-2 0,-2 -4.64,0.02 -7.29,-0.88 -9,4 -3.74,-1.4 -7.79,-1.7 -10,-5 0,0 -6,1 -6,1 0,0 0,-14 0,-14 0,0 -6,1 -6,1 -3.21,5.68 -10.86,8.18 -16.56,10.61 -5.19,2.21 -5.23,3.69 -11.44,4.39 0,0 0,-5 0,-5 0,0 4,1 4,1 0,0 2,-7 2,-7 0,0 4,0 4,0 0,0 0,-4 0,-4 0,0 6,-1 6,-1 0,0 -4,-7 -4,-7 3.01,0.96 4.04,1.99 5,5 0,0 9,1 9,1 -0.67,-7.11 0.42,-10.12 8,-11 0,0 -1,-4 -1,-4 0,0 7,2 7,2 -5.92,-7.03 -7.77,-2.95 -16,-1 2.43,-4.29 4.18,-3.56 4,-9 0,0 -10.84,5.96 -10.84,5.96 0,0 -7.16,-1.96 -7.16,-1.96 -3.73,8.92 -6.92,4.72 -8,14 0,0 -11,-2 -11,-2 0,0 0,-7 0,-7 0,0 4,0 4,0 0,0 -4,-7 -4,-7 0,0 5,0 5,0 0,0 -1,4 -1,4 2.47,-2.22 1.96,-3.81 2,-7 0,0 3,0 3,0 0,0 0,5 0,5 0,0 4,-2 4,-2 0,0 -1,-9 -1,-9 0,0 8,1 8,1 0,0 -1,-5 -1,-5 -4.9,0.35 -16.88,5.62 -21.43,8.31 -4.26,2.52 -9.63,6.29 -14.57,3.69 -3.97,0.9 -4.74,1.75 -8,-1 -5.33,1.3 -6.46,-0.91 -6,-6 0,0 2,1 2,1 0,0 0,1 0,1 0,0 5,-1 5,-1 0,0 0,-6 0,-6 0,0 5.55,5.79 5.55,5.79 0,0 6.45,0 6.45,0 1.94,-3.03 2.28,-2.86 6,-2.79 2.2,-4.26 4.07,-6.62 9,-5 3.62,-2.26 3.92,-2.28 8,-1 0,0 1,-5 1,-5 -7.83,1.91 -20.47,3.3 -25,-5 0,0 12.26,-4.82 12.26,-4.82 0,0 5.74,-8.18 5.74,-8.18 0,0 0,5 0,5 0,0 4,4 4,4 1.26,-2.81 1.27,-6.37 5,-5 0,0 7,2 7,2 0,0 0,-5 0,-5 8.98,1.23 12.15,5.84 16,-6 0,0 4,1 4,1 0,0 3,-5 3,-5 0,0 -12,2 -12,2 0,0 0,4 0,4 0,0 -8,0 -8,0 0,0 -4,-16 -4,-16 0,0 4,3 4,3 0,0 6,-16 6,-16 0,0 -3,-3 -3,-3 0,0 4,2 4,2 0,0 2,-5 2,-5 -7.72,0.22 -10.59,8.67 -18.29,10.05 -3.13,0.55 -2.74,-1.49 -15.71,0.95 0,0 0,-4 0,-4 0,0 8,0 8,0 0,0 0,-4 0,-4 8.3,-1.3 10.91,-2.43 10,-11 0,0 16.42,-1.03 16.42,-1.03 0,0 3.58,-4.97 3.58,-4.97 -13.4,-5.32 -24.3,7.06 -28,-7 0,0 8,0 8,0 0,0 1.15,-6 1.15,-6 0,0 0,-2 0,-2 -0.6,-1.24 -1.26,-1.97 0,-3.13 3.02,-2.04 6.37,0.9 8.85,2.13 0,0 -4.68,-9.74 -4.68,-9.74 0,0 5.68,-5.26 5.68,-5.26 -5.7,-0.93 -6.55,-2.39 -6,-8 0,0 -3,-4 -3,-4 -4.33,5.98 -2.35,8.85 -8,12 0,0 0,4 0,4 -7.9,2.62 -8.77,10.58 -18,13 0,0 2,-5 2,-5 0,0 -1,-6 -1,-6 -5.58,4.54 -5.29,6.55 -13,7 0,0 5,-11 5,-11 -7.55,1.44 -12.18,5.44 -16,-4 0,0 9,-3 9,-3 0,0 -4,-12 -4,-12 0,0 9,3 9,3 0,0 -2,10 -2,10 0,0 5,0 5,0 5.99,-7.31 6.16,-2.31 11.72,-3.6 0,0 5.28,-2.4 5.28,-2.4 0,0 1,3 1,3 0,0 7,-13 7,-13 -6.57,-2.19 -14.17,3.11 -18,-5 3.54,-0.62 3.8,-0.58 5,-4 0,0 5,3 5,3 0,0 2,-4 2,-4 0,0 3,0 3,0 0,0 1,3 1,3 0,0 7,-9 7,-9 0.55,2.87 0.29,2.87 3,4 0,0 -1,-5 -1,-5 0,0 6,1 6,1 0,0 2,-6 2,-6 -4.3,1.54 -9.28,4.39 -13.99,3.74 -3.97,-0.56 -7.3,-4.4 -1.01,-4.74 0,0 2,-5 2,-5 0,0 -3,-4 -3,-4 0,0 7,0 7,0 0,0 -5,-15.999996 -5,-15.999996 -2.64,3.18 -2.71,3.92 -3,7.999996 0,0 -5,0 -5,0 -1.66,6.85 -2.13,11.46 -9,15 0,0 -1,-8 -1,-8 0,0 -11.12,1.37 -11.12,1.37 0,0 -3.98,0 -3.98,0 0,0 0,-7.37 0,-7.37 4.06,-1.31 4.22,-2 5.1,-5.999996 0,0 4,0 4,0 -1.56,9.199996 0.91,9.039996 9,7.999996 0,0 0,-6.999996 0,-6.999996 0,0 5,0 5,0 0,0 -4,-5.999996 -4,-5.999996 0,0 6,1.999996 6,1.999996 0.69,-5.029996 -1.39,-6.629996 -6,-7.999992 0,0 3,-4 3,-4 -6.05,-2.329996 -6.9,2.82 -10,-1 0,0 -8,3 -8,3 -2.24,-3.24 -3.34,-2.54 -7,-2 1.93,-3.209996 2.39,-3.209996 6,-3.999996 0,0 -1,-4 -1,-4 0,0 5,0 5,0 0,0 2,-4.999996 2,-4.999996 0,0 -15,4 -15,4 1.64,-5.759996 4.32,-6.439996 8,-10.999996 -9.33,0.58 -6.73,-3.199996 -8.5,-8.719996 0,0 -2.5,-6.28 -2.5,-6.28 5.09,0.87 5.05,2.1 8,6 0,0 1,-3 1,-3 0,0 4,0 4,0 0,0 2,-5 2,-5 0,0 -4,-4 -4,-4 0,0 6,3 6,3 0,0 2,-11 2,-11 -11.13,3.3 -18.89,18.36 -25,6 0,0 5,3 5,3 0,0 4,-1 4,-1 -1.81,-6.07 -0.32,-5.14 4,-10 0,0 -7,0 -7,0 0,0 3,-5 3,-5 -1.7,-1.58 -5.54,-5.74 -7.3,-6.39 -4.61,-1.71 -6.94,2.82 -9.7,-4.61 0,0 3,-1 3,-1 -3.88,-0.53 -6.41,1.88 -8.63,0.77 -5.69,-2.85 7.3,-7.29 8.63,-7.77 0,0 -3,-4 -3,-4 -5.18,2.5 -7.62,0.07 -9,-4.99999994 0,0 9,1.99999994 9,1.99999994 0,0 -2,-4 -2,-4 0,0 5,0 5,0 0,0 -2,-6 -2,-6 0,0 -11,4 -11,4 0,0 1,-9 1,-9 -4.66,-2.62 -5.48,-7.97 -6,-13 0,0 -2,0 -2,0 z m 39,199.999972 c 0,0 0,1 0,1 0,0 -1,-1 -1,-1 0,0 1,0 1,0 z m -117,93 c 0,0 0,1 0,1 0,0 -1,-1 -1,-1 0,0 1,0 1,0 z m 131,90.77 c 0,0 -2.53,4.85 -2.53,4.85 0,0 -8.47,0 -8.47,0 0,0 -7,-0.94 -7,-0.94 0,0 -9,-1.68 -9,-1.68 0.04,-3.89 -0.32,-8.14 4.09,-9.58 1.7,-0.87 2.94,-0.81 4.44,0 2.45,1.92 3.75,5.84 6.68,7.35 3.1,1.13 6.02,-0.94 11.79,0 z m -56,17.23 c 0,0 2,-4 2,-4 0,0 6,1 6,1 -2.81,10.82 -5.31,11.78 -16,10 -1.82,4.65 -4.71,3.67 -9,3 0,0 0,4 0,4 -3.6,-0.66 -10.52,-0.4 -12.77,-2.05 -8.89,-6.49 4.02,-13.65 9.77,-14.95 0,0 -1,4 -1,4 9.68,1.06 6.32,-0.81 14,-3 0,0 1,3 1,3 0,0 0,-9 0,-9 5.28,0.91 4.71,3.22 6,8 z m 83,-7 c 0,0 0,1 0,1 0,0 -1,-1 -1,-1 0,0 1,0 1,0 z m -107,40 c 0,0 0,3 0,3 0,0 4,0 4,0 0,0 -2,6 -2,6 0,0 -4,0 -4,0 -2.06,-4.58 -5.06,-7.76 2,-9 z m 149,2 c 0,0 0,1 0,1 0,0 -1,-1 -1,-1 0,0 1,0 1,0 z m -20,19 c 0,0 5,0.85 5,0.85 1.91,0.48 7.72,2.59 5.83,5.57 -1.16,1.83 -9.03,1.76 -10.83,-6.42 z m -99,30 c 1.64,6.73 1.14,24.29 1,32 -0.1,5.05 -0.36,6.61 -5,9 0,0 0,-4 0,-4 0,0 -5,0 -5,0 -2.57,7.4 -8.17,3.7 -9,14 0,0 -7.1,5.75 -7.1,5.75 0,0 -6.73,0 -6.73,0 0,0 -8.17,2.25 -8.17,2.25 0,0 1.17,-6.43 1.17,-6.43 0,0 9.83,-3.07 9.83,-3.07 0,0 4,1.5 4,1.5 0,0 2,-8 2,-8 0,0 4,0 4,0 0,0 3,-4 3,-4 0,0 -6.16,-3.63 -6.16,-3.63 -5.48,-2.5 -7.32,-1.29 -8.84,-8.37 0,0 6.3,-8.42 6.3,-8.42 0,0 5.95,-3.43 5.95,-3.43 0,0 7.66,-8.34 7.66,-8.34 0,0 8.09,-6.81 8.09,-6.81 0,0 3,0 3,0 z m -24,45 c -6.38,1.39 -7.56,-0.99 -9,-7 5.73,0.54 7.71,1.1 9,7 z m 29,9 c 0,3.25 0.6,14.18 -0.99,16.59 -2.45,3.29 -9.43,2.66 -12.32,0 -3.48,-2.84 -1.94,-5.43 -3.07,-7.89 -1.08,-2.34 -2.31,-2.1 -3.62,-6.03 0,0 7,0 7,0 0,0 5.58,0 5.58,0 0,0 7.42,-2.67 7.42,-2.67 z m 30,109 c 0,0 6,-2 6,-2 0,0 -2,6 -2,6 0,0 4,0 4,0 0,0 0,4 0,4 0,0 -4,3 -4,3 0,0 5,0 5,0 0,0 0,4 0,4 0,0 -8,8 -8,8 3.22,1.4 2.38,2.15 1,5 0,0 11,-1 11,-1 0,0 1,1 1,1 0,0 -1,2 -1,2 0,0 11,-4 11,-4 1.58,2.71 3.85,6.69 7.17,7.48 2.47,0.59 4.36,-0.94 6.55,-0.73 1.79,0.17 9.54,4.17 10.69,5.55 1.11,1.35 1.13,2.17 1.59,3.7 0,0 -15,-3 -15,-3 0.87,3.91 0.77,4.48 -3,6 0.7,1.42 1.82,3.45 2.14,4.99 0.88,4.17 -2.04,6.32 -5.86,6.7 -5.74,0.58 -12.81,-1.82 -18.28,-3.21 -2.67,-0.68 -8.5,-1.24 -10.26,-3.07 -2,-2.08 -1.63,-5.74 -1.83,-8.41 -0.85,-11.53 -0.75,-6.65 0,-18 0.52,-7.82 -1.25,-7.4 -1.8,-12.09 0,0 -0.52,-6.91 -0.52,-6.91 0,0 -2.59,-8 -2.59,-8 0,0 7,3 7,3 z m -31,23 c 0,0 0,26 0,26 -10.14,0.83 -9.12,1.69 -17.28,5.84 0,0 -7.3,3.27 -7.3,3.27 -2.68,1.51 -11.73,6.45 -14.41,6.25 -4.45,-0.34 -5.41,-4.79 -6.01,-8.36 5.32,-0.38 8.55,-3.57 12,2 0.53,-5.02 -1.76,-10.78 1.05,-16 2.21,-4.09 7.14,-5.57 10.95,-7.71 8.04,-4.5 10.89,-9.26 21,-11.29 z m -1,62 c 0,0 0.98,14.99 0.98,14.99 -0.08,2.05 -0.09,3.59 -1.55,5.21 0,0 -18.87,10.38 -18.87,10.38 -3,1.34 -7.32,3.2 -9.96,0 -3.2,-3.68 0.96,-9.16 3.26,-12.29 7.27,-9.9 12.75,-17.96 26.14,-18.29 z"
       style="fill:#000000;fill-opacity:1;stroke:#000000;stroke-width:1"
       inkscape:connector-curvature="0" />
  </g>
  <g
     inkscape:groupmode="layer"
     id="layer4"
     inkscape:label="arrow"
     sodipodi:insensitive="true"
     style="display:inline">
    <path
       style="fill:url(#linearGradient4698);fill-opacity:1;stroke:#000000;stroke-width:4.68750429;stroke-linecap:butt;stroke-linejoin:miter;stroke-miterlimit:4;stroke-dasharray:none;stroke-opacity:1"
       d="M -7.3781536,79.477704 -79.924599,193.54031 h 50.69583 V 946.82472 H 14.478554 V 193.54031 H 65.16832 Z"
       id="path58"
       inkscape:connector-curvature="0" />
    <g
       id="g154"
       style="stroke-width:4.68750429;stroke-miterlimit:4;stroke-dasharray:none"
       transform="translate(0,3.5620956)">
      <path
         id="path58-5"
         d="M 746.31346,50.634814 929.80973,276.15383 H 832.42195 V 943.26262 H 795.0806 L 674.61542,138.75136 Z"
         style="fill:#000000;fill-opacity:0.11229948;stroke:#000000;stroke-width:4.68750429;stroke-linecap:butt;stroke-linejoin:miter;stroke-miterlimit:4;stroke-dasharray:none;stroke-opacity:1"
         inkscape:connector-curvature="0" />
      <path
         inkscape:connector-curvature="0"
         id="path58-5-5"
         d="M 674.62152,138.75747 795.0806,943.26262 H 666.35736 V 276.15384 H 562.82332 Z"
         style="fill:#000000;fill-opacity:1;stroke:#000000;stroke-width:4.68750429;stroke-linecap:butt;stroke-linejoin:miter;stroke-miterlimit:4;stroke-dasharray:none;stroke-opacity:1" />
    </g>
    <text
       xml:space="preserve"
       style="font-style:normal;font-weight:normal;font-size:125.00012207px;line-height:1.25;font-family:sans-serif;letter-spacing:0px;word-spacing:0px;fill:#000000;fill-opacity:1;stroke:none;stroke-width:3.1250031"
       x="-150.48679"
       y="1047.9905"
       id="text832"><tspan
         sodipodi:role="line"
         id="tspan830"
         x="-150.48679"
         y="1047.9905"
         style="font-size:50.00004578px;stroke-width:3.1250031">Exposure</tspan></text>
    <g
       id="g852"
       transform="translate(-377.30535,-20.271483)">
      <text
         id="text838"
         y="1069.8"
         x="839.66718"
         style="font-style:normal;font-weight:normal;font-size:125.00012207px;line-height:1.25;font-family:sans-serif;letter-spacing:0px;word-spacing:0px;fill:#000000;fill-opacity:1;stroke:none;stroke-width:3.1250031"
         xml:space="preserve"><tspan
           id="tspan840"
           style="font-size:50.00004578px;stroke-width:3.1250031"
           y="1069.8"
           x="839.66718"
           sodipodi:role="line">Hologenomic Expression</tspan></text>
      <text
         id="text846"
         y="1138.874"
         x="874.98627"
         style="font-style:normal;font-weight:normal;font-size:125.00012207px;line-height:1.25;font-family:sans-serif;letter-spacing:0px;word-spacing:0px;fill:#000000;fill-opacity:1;stroke:none;stroke-width:3.1250031"
         xml:space="preserve"><tspan
           style="font-size:41.66670609px;stroke-width:3.1250031"
           y="1138.874"
           x="874.98627"
           id="tspan844"
           sodipodi:role="line">(example - anthocyanins) </tspan></text>
    </g>
    <g
       id="g911"
       transform="rotate(-90,1095.9295,769.91865)">
      <rect
         style="fill:#ffffff;fill-opacity:1;stroke:#000000;stroke-width:3.1250031;stroke-opacity:1"
         y="350.08463"
         x="1022.8675"
         height="65.428688"
         width="117.77169"
         id="rect32" />
      <text
         id="text841"
         y="397.69156"
         x="1032.7726"
         style="font-style:normal;font-weight:normal;font-size:125.00012207px;line-height:1.25;font-family:sans-serif;letter-spacing:0px;word-spacing:0px;fill:#000000;fill-opacity:1;stroke:none;stroke-width:3.1250031"
         xml:space="preserve"><tspan
           style="font-size:41.66670609px;stroke-width:3.1250031"
           y="397.69156"
           x="1032.7726"
           id="tspan839"
           sodipodi:role="line">Host</tspan></text>
    </g>
    <g
       id="g906"
       transform="rotate(-90,850.57203,671.77562)">
      <rect
         style="fill:#ffffff;fill-opacity:1;stroke:#000000;stroke-width:3.1250031;stroke-opacity:1"
         y="561.63733"
         x="1081.7533"
         height="65.428711"
         width="255.17198"
         id="rect32-3" />
      <text
         id="text841-7"
         y="609.88513"
         x="1088.5221"
         style="font-style:normal;font-weight:normal;font-size:125.00012207px;line-height:1.25;font-family:sans-serif;letter-spacing:0px;word-spacing:0px;fill:#000000;fill-opacity:1;stroke:none;stroke-width:3.1250031"
         xml:space="preserve"><tspan
           style="font-size:41.66670609px;stroke-width:3.1250031"
           y="609.88513"
           x="1088.5221"
           id="tspan839-5"
           sodipodi:role="line">Microbiome</tspan></text>
    </g>
  </g>
</svg>
