<?xml version="1.0" encoding="UTF-8" standalone="no"?>
<!DOCTYPE svg PUBLIC "-//W3C//DTD SVG 20010904//EN"
              "http://www.w3.org/TR/2001/REC-SVG-20010904/DTD/svg10.dtd">

<svg xmlns="http://www.w3.org/2000/svg"
     width="2.24667in" height="3.41333in"
     viewBox="0 0 674 1024">
  <path id="Selection"
        fill="none" stroke="black" stroke-width="1"
        d="M 325.00,17.00
           C 325.00,17.00 326.00,29.00 326.00,29.00
             321.10,27.29 320.08,26.05 319.00,21.00
             316.30,28.48 323.36,28.99 324.00,40.00
             324.00,40.00 316.00,39.00 316.00,39.00
             318.35,43.68 319.90,44.41 325.00,45.00
             323.86,49.01 323.32,49.53 320.00,52.00
             320.00,52.00 322.00,55.00 322.00,55.00
             322.00,55.00 328.00,53.00 328.00,53.00
             328.00,53.00 328.00,61.00 328.00,61.00
             328.00,61.00 323.00,60.00 323.00,60.00
             320.33,63.72 318.90,60.93 314.00,58.00
             314.00,58.00 310.89,60.54 310.89,60.54
             310.89,60.54 299.00,59.00 299.00,59.00
             299.00,59.00 303.81,69.00 303.81,69.00
             303.81,69.00 303.00,77.00 303.00,77.00
             307.76,74.14 310.02,72.58 312.00,79.00
             312.00,79.00 321.00,77.00 321.00,77.00
             321.00,77.00 321.00,85.00 321.00,85.00
             321.00,85.00 313.00,83.00 313.00,83.00
             313.00,83.00 318.00,90.00 318.00,90.00
             312.01,91.07 308.29,92.16 305.00,86.00
             295.84,87.42 301.17,90.07 291.00,85.00
             291.00,85.00 293.00,93.00 293.00,93.00
             289.55,94.45 290.28,95.65 291.00,99.00
             291.00,99.00 295.00,98.00 295.00,98.00
             295.00,98.00 297.00,107.00 297.00,107.00
             297.00,107.00 305.00,105.00 305.00,105.00
             305.00,105.00 304.00,113.00 304.00,113.00
             304.00,113.00 297.00,112.00 297.00,112.00
             299.13,113.60 306.39,116.09 309.00,116.53
             311.33,116.83 312.94,115.70 314.98,116.53
             318.73,118.19 319.36,124.74 311.91,121.65
             308.50,120.23 308.69,120.26 305.00,120.00
             305.00,120.00 309.00,127.00 309.00,127.00
             309.00,127.00 297.00,126.00 297.00,126.00
             297.00,126.00 303.00,135.00 303.00,135.00
             303.00,135.00 309.00,133.00 309.00,133.00
             309.00,133.00 309.00,137.00 309.00,137.00
             309.00,137.00 311.00,133.00 311.00,133.00
             311.00,133.00 315.00,133.00 315.00,133.00
             314.47,137.44 313.34,139.35 318.00,141.00
             318.00,141.00 318.00,146.00 318.00,146.00
             311.03,145.02 302.35,144.62 300.00,137.00
             300.00,137.00 295.00,137.00 295.00,137.00
             297.22,141.22 300.45,145.67 297.36,150.35
             296.52,151.64 295.51,152.67 293.87,152.73
             291.15,152.83 285.69,148.48 283.00,147.00
             283.00,147.00 279.00,153.00 279.00,153.00
             282.11,157.45 281.26,157.92 280.00,163.00
             280.00,163.00 283.00,170.00 283.00,170.00
             283.00,170.00 288.00,168.00 288.00,168.00
             287.49,172.36 287.27,173.03 284.00,176.00
             284.00,176.00 295.00,175.00 295.00,175.00
             292.63,180.10 290.38,180.69 285.00,181.00
             285.00,181.00 286.00,186.00 286.00,186.00
             281.25,186.67 277.66,188.25 276.00,193.00
             271.56,193.00 268.69,193.72 265.00,191.00
             256.03,192.08 258.54,188.68 250.00,184.00
             250.00,184.00 251.00,190.00 251.00,190.00
             251.00,190.00 255.00,191.00 255.00,191.00
             255.00,191.00 254.00,198.00 254.00,198.00
             259.23,197.91 259.70,199.09 261.00,204.00
             257.34,205.52 258.05,207.34 258.00,211.00
             258.00,211.00 267.00,204.00 267.00,204.00
             267.00,204.00 267.00,209.00 267.00,209.00
             267.00,209.00 272.00,211.00 272.00,211.00
             272.00,211.00 272.00,207.00 272.00,207.00
             272.00,207.00 279.00,209.00 279.00,209.00
             281.30,200.58 284.55,204.91 289.00,207.00
             289.00,207.00 289.00,202.00 289.00,202.00
             284.10,199.38 284.13,197.20 284.00,192.00
             288.42,194.46 289.00,197.28 290.00,202.00
             290.00,202.00 293.00,196.00 293.00,196.00
             293.00,196.00 297.00,196.00 297.00,196.00
             296.35,200.65 293.17,208.48 288.54,210.49
             287.00,211.16 283.28,210.73 281.25,211.00
             281.25,211.00 281.25,214.72 281.25,214.72
             281.25,214.72 275.00,218.54 275.00,218.54
             275.00,218.54 258.00,225.00 258.00,225.00
             258.00,225.00 267.00,225.00 267.00,225.00
             267.00,225.00 271.00,229.00 271.00,229.00
             271.00,229.00 275.00,225.00 275.00,225.00
             273.82,234.77 273.79,234.58 265.00,240.00
             265.00,240.00 269.00,244.00 269.00,244.00
             273.25,239.55 272.15,242.13 276.00,241.23
             280.23,240.24 279.48,237.34 285.00,240.00
             285.00,240.00 287.00,234.00 287.00,234.00
             289.79,233.39 294.61,232.21 296.38,229.70
             298.12,226.99 295.94,224.86 296.38,222.26
             296.38,222.26 299.00,217.00 299.00,217.00
             299.00,217.00 303.00,217.00 303.00,217.00
             303.00,217.00 303.00,221.00 303.00,221.00
             303.00,221.00 305.00,217.00 305.00,217.00
             312.56,221.17 307.78,224.66 303.00,228.00
             303.00,228.00 305.00,236.15 305.00,236.15
             302.93,235.96 298.94,235.59 297.17,236.15
             292.17,238.28 293.97,242.42 284.00,243.00
             284.00,243.00 281.00,249.00 281.00,249.00
             283.35,250.94 282.81,251.14 282.00,254.00
             282.00,254.00 300.00,253.00 300.00,253.00
             297.91,267.23 278.25,258.15 270.00,256.00
             270.00,256.00 272.00,261.00 272.00,261.00
             260.98,261.84 258.33,256.09 250.00,251.00
             251.91,257.39 251.61,256.17 249.00,262.00
             257.82,259.94 254.70,264.37 253.00,270.00
             253.00,270.00 262.00,268.00 262.00,268.00
             260.87,273.43 259.01,275.62 254.00,278.00
             257.59,282.62 259.36,276.80 263.00,282.00
             266.09,281.15 269.06,279.57 272.00,280.88
             278.71,280.17 279.61,281.97 282.72,280.88
             284.45,280.10 287.33,277.13 289.23,278.82
             289.84,279.37 290.00,280.25 289.96,281.03
             289.76,285.60 284.23,285.08 281.01,286.03
             271.16,288.91 272.21,292.39 266.96,293.90
             262.52,295.17 257.22,293.31 253.00,292.00
             253.00,292.00 253.00,297.00 253.00,297.00
             245.76,296.82 243.58,295.50 238.00,291.00
             236.79,295.60 237.42,295.74 239.00,300.00
             239.00,300.00 244.00,299.00 244.00,299.00
             244.00,299.00 242.00,306.00 242.00,306.00
             245.35,309.79 244.24,310.76 241.00,314.00
             241.00,314.00 245.00,317.00 245.00,317.00
             249.02,313.49 257.51,314.86 263.79,310.74
             269.13,307.24 266.07,303.29 273.00,301.00
             272.90,302.71 272.91,304.33 272.26,305.96
             271.00,309.14 263.96,317.00 261.00,319.00
             261.00,319.00 265.25,324.18 265.25,324.18
             265.25,324.18 271.26,321.13 271.26,321.13
             271.26,321.13 278.00,321.13 278.00,321.13
             278.00,321.13 277.00,313.00 277.00,313.00
             277.00,313.00 280.00,313.00 280.00,313.00
             280.00,313.00 279.00,324.00 279.00,324.00
             287.24,321.54 286.25,317.41 289.87,317.11
             292.90,316.85 300.84,325.30 293.89,326.90
             292.35,326.98 290.23,326.13 288.47,326.90
             286.31,328.34 285.58,331.81 284.11,333.73
             283.33,334.74 275.98,339.92 274.79,340.25
             270.47,341.44 261.48,337.21 257.00,336.00
             257.00,336.00 251.00,337.00 251.00,337.00
             251.00,337.00 264.74,355.00 264.74,355.00
             264.74,355.00 267.00,356.00 267.00,356.00
             267.00,356.00 267.00,360.00 267.00,360.00
             267.00,360.00 274.00,355.00 274.00,355.00
             274.00,355.00 273.00,359.00 273.00,359.00
             273.00,359.00 277.00,359.00 277.00,359.00
             277.00,359.00 277.00,353.00 277.00,353.00
             280.65,355.29 280.61,356.89 281.00,361.00
             287.64,362.82 287.15,366.42 280.00,367.00
             278.54,369.37 278.05,370.16 274.98,370.16
             272.38,370.16 254.40,364.34 252.29,362.87
             250.78,361.81 250.84,361.40 250.00,360.00
             250.00,360.00 246.00,361.00 246.00,361.00
             244.46,356.88 243.60,356.43 240.00,354.00
             240.04,358.09 239.71,362.09 243.28,364.87
             246.18,367.13 254.36,369.54 255.44,372.78
             256.17,374.98 253.67,376.16 251.96,376.58
             247.70,377.63 245.60,376.05 243.00,373.00
             234.23,375.05 238.24,371.11 230.00,367.00
             232.34,374.86 235.19,373.25 232.00,381.00
             232.00,381.00 246.99,383.65 246.99,383.65
             250.25,384.65 251.66,386.65 255.09,386.59
             262.82,386.47 265.64,380.44 271.00,385.00
             274.77,381.72 275.91,384.03 277.00,388.00
             277.00,388.00 287.00,388.00 287.00,388.00
             287.00,388.00 285.00,395.00 285.00,395.00
             272.57,392.78 269.05,396.94 261.00,397.00
             261.00,397.00 260.00,400.00 260.00,400.00
             254.08,398.65 249.20,395.12 248.00,402.00
             248.00,402.00 240.00,401.00 240.00,401.00
             240.00,401.00 222.00,415.00 222.00,415.00
             222.00,415.00 222.00,417.00 222.00,417.00
             222.00,417.00 228.00,421.00 228.00,421.00
             228.00,421.00 230.00,413.00 230.00,413.00
             230.00,413.00 238.10,417.18 238.10,417.18
             238.10,417.18 254.00,413.00 254.00,413.00
             253.79,419.02 250.59,424.84 245.00,427.62
             245.00,427.62 239.28,429.62 239.28,429.62
             235.71,431.42 234.86,433.12 230.00,432.85
             226.85,432.68 224.73,431.38 222.00,430.00
             222.30,434.88 226.83,437.33 230.00,441.00
             233.13,437.16 234.71,434.97 238.00,440.00
             238.00,440.00 244.00,439.00 244.00,439.00
             245.32,435.26 245.49,434.87 249.00,433.00
             249.00,433.00 249.00,437.00 249.00,437.00
             249.00,437.00 253.00,438.00 253.00,438.00
             253.00,438.00 261.00,440.00 261.00,440.00
             265.78,434.48 266.70,437.33 272.00,440.00
             271.57,438.65 269.86,434.20 270.06,433.04
             270.60,430.00 272.86,431.53 274.00,433.04
             274.00,433.04 280.00,431.00 280.00,431.00
             280.00,431.00 278.15,442.00 278.15,442.00
             278.15,442.00 278.15,451.00 278.15,451.00
             278.15,451.00 286.00,446.00 286.00,446.00
             286.00,446.00 285.00,454.00 285.00,454.00
             287.71,450.49 287.51,449.42 292.00,448.00
             292.00,448.00 289.00,462.00 289.00,462.00
             289.00,462.00 284.00,459.00 284.00,459.00
             284.00,459.00 284.00,466.00 284.00,466.00
             284.00,466.00 279.00,465.00 279.00,465.00
             276.68,468.12 274.95,466.04 272.55,463.90
             267.79,459.66 263.59,455.27 259.97,450.00
             258.64,454.74 260.87,460.82 259.97,463.96
             256.84,474.43 241.37,462.27 236.00,460.00
             238.73,470.38 243.09,467.05 241.00,476.00
             241.00,476.00 234.00,471.00 234.00,471.00
             234.00,471.00 224.00,470.00 224.00,470.00
             223.71,473.49 223.97,474.01 221.00,476.00
             221.00,476.00 229.00,476.00 229.00,476.00
             229.36,480.46 229.58,480.98 234.00,482.00
             232.72,486.33 231.39,487.18 228.00,490.00
             228.00,490.00 230.00,494.00 230.00,494.00
             230.00,494.00 238.63,490.50 238.63,490.50
             238.63,490.50 244.00,487.00 244.00,487.00
             244.00,487.00 242.69,492.44 242.69,492.44
             242.69,492.44 225.00,503.00 225.00,503.00
             225.00,503.00 226.00,506.00 226.00,506.00
             226.00,506.00 231.00,504.00 231.00,504.00
             231.00,504.00 231.00,507.00 231.00,507.00
             231.00,507.00 234.00,507.00 234.00,507.00
             234.00,507.00 239.00,503.00 239.00,503.00
             239.00,503.00 240.00,510.00 240.00,510.00
             240.00,510.00 248.00,498.00 248.00,498.00
             248.00,498.00 248.00,509.00 248.00,509.00
             251.26,505.69 252.43,505.04 257.00,504.00
             257.00,504.00 256.00,500.00 256.00,500.00
             256.00,500.00 261.00,501.00 261.00,501.00
             261.00,501.00 261.00,497.00 261.00,497.00
             265.54,497.12 267.50,496.84 270.00,501.00
             270.00,501.00 256.18,511.47 256.18,511.47
             256.18,511.47 249.89,518.97 249.89,518.97
             249.89,518.97 243.00,522.00 243.00,522.00
             249.05,525.70 248.71,520.86 257.00,522.00
             259.48,519.24 259.96,518.50 263.00,521.00
             263.00,521.00 267.00,510.00 267.00,510.00
             267.00,510.00 272.00,510.00 272.00,510.00
             272.00,510.00 271.00,514.00 271.00,514.00
             271.00,514.00 275.00,514.00 275.00,514.00
             275.00,514.00 274.00,519.00 274.00,519.00
             276.71,517.87 276.45,517.87 277.00,515.00
             277.00,515.00 284.00,516.00 284.00,516.00
             284.00,516.00 283.00,509.00 283.00,509.00
             283.00,509.00 288.00,509.00 288.00,509.00
             289.55,504.42 291.49,502.23 295.00,499.00
             295.00,499.00 291.00,488.00 291.00,488.00
             296.47,487.81 304.21,485.60 306.00,480.00
             306.00,480.00 309.00,480.00 309.00,480.00
             309.33,485.21 308.68,490.53 305.02,494.54
             296.92,503.40 293.30,498.80 293.00,509.00
             300.20,506.84 298.79,504.28 305.00,506.00
             305.00,506.00 307.00,500.00 307.00,500.00
             307.00,500.00 316.00,500.00 316.00,500.00
             316.00,500.00 317.00,499.00 317.00,499.00
             317.00,499.00 316.00,488.00 316.00,488.00
             316.00,488.00 326.00,486.00 326.00,486.00
             326.00,486.00 326.00,495.00 326.00,495.00
             320.16,496.34 319.20,501.59 315.00,505.91
             308.63,512.45 297.93,520.81 289.00,523.00
             289.00,523.00 290.00,530.00 290.00,530.00
             290.00,530.00 284.00,526.00 284.00,526.00
             284.00,526.00 284.00,529.00 284.00,529.00
             279.66,527.86 279.33,527.49 275.00,529.00
             275.00,529.00 277.00,535.00 277.00,535.00
             277.00,535.00 270.00,537.00 270.00,537.00
             270.00,537.00 271.00,532.00 271.00,532.00
             271.00,532.00 268.00,529.00 268.00,529.00
             262.30,532.17 261.68,530.33 256.00,529.00
             256.00,529.00 254.00,535.00 254.00,535.00
             254.00,535.00 244.00,531.00 244.00,531.00
             247.10,538.52 249.61,536.26 252.33,539.54
             253.76,541.28 253.75,544.77 254.00,547.00
             254.00,547.00 246.00,546.00 246.00,546.00
             246.00,546.00 247.00,550.00 247.00,550.00
             239.21,548.89 237.26,549.93 232.00,543.00
             232.00,543.00 232.00,551.00 232.00,551.00
             227.41,551.31 225.56,552.42 223.00,548.00
             223.00,548.00 222.00,551.00 222.00,551.00
             216.99,549.71 216.22,548.99 213.00,545.00
             213.00,545.00 212.00,548.00 212.00,548.00
             212.00,548.00 203.00,546.00 203.00,546.00
             201.51,542.09 200.00,541.93 196.00,542.00
             200.08,546.44 206.94,548.34 202.00,552.00
             203.99,554.97 204.51,554.71 207.67,555.00
             207.67,555.00 207.67,557.98 207.67,557.98
             207.67,557.98 207.67,559.89 207.67,559.89
             208.10,567.78 214.31,557.76 215.63,556.59
             216.96,555.41 217.48,555.50 219.00,555.00
             219.00,555.00 216.00,571.00 216.00,571.00
             216.00,571.00 212.00,571.00 212.00,571.00
             212.00,571.00 211.00,580.00 211.00,580.00
             211.00,580.00 220.92,581.12 220.92,581.12
             220.92,581.12 227.00,578.00 227.00,578.00
             227.00,578.00 228.00,583.00 228.00,583.00
             228.00,583.00 230.00,583.00 230.00,583.00
             230.00,583.00 231.00,579.00 231.00,579.00
             231.00,579.00 239.00,580.00 239.00,580.00
             239.00,580.00 238.00,572.00 238.00,572.00
             247.31,573.67 245.44,572.48 253.00,572.85
             255.01,572.79 258.08,573.48 259.90,572.85
             264.73,571.64 262.42,567.86 270.00,568.00
             273.26,565.23 277.44,565.96 281.00,568.00
             281.00,568.00 286.00,567.00 286.00,567.00
             286.00,567.00 286.00,571.00 286.00,571.00
             286.00,571.00 283.00,571.00 283.00,571.00
             283.00,571.00 283.00,575.00 283.00,575.00
             275.50,575.61 274.37,577.79 267.00,576.00
             267.00,576.00 262.00,579.00 262.00,579.00
             262.35,580.74 263.39,583.98 262.74,585.59
             260.57,590.89 252.08,590.46 248.00,591.49
             243.50,592.63 244.21,593.68 239.00,593.00
             235.97,597.77 233.70,595.65 229.00,596.56
             229.00,596.56 223.00,598.06 223.00,598.06
             220.14,598.86 211.94,598.42 209.00,598.06
             202.95,596.57 203.98,594.46 196.00,594.00
             199.24,600.17 197.66,599.02 196.00,605.00
             196.00,605.00 199.00,604.06 199.00,604.06
             208.85,601.64 203.56,611.29 204.38,613.46
             204.83,614.64 205.50,614.61 206.00,615.00
             206.00,615.00 209.00,612.00 209.00,612.00
             210.53,618.70 213.86,617.19 221.00,618.00
             221.00,618.00 221.00,624.00 221.00,624.00
             216.72,624.66 215.23,625.18 213.00,629.00
             213.00,629.00 218.00,630.00 218.00,630.00
             218.00,630.00 222.00,627.00 222.00,627.00
             222.00,627.00 221.00,631.00 221.00,631.00
             224.84,630.26 226.74,630.42 229.00,627.00
             229.00,627.00 232.00,629.00 232.00,629.00
             232.00,629.00 234.00,624.00 234.00,624.00
             234.00,624.00 237.00,624.00 237.00,624.00
             237.00,624.00 238.00,628.00 238.00,628.00
             238.00,628.00 239.00,620.00 239.00,620.00
             239.00,620.00 242.00,622.00 242.00,622.00
             242.00,622.00 246.00,622.00 246.00,622.00
             246.00,622.00 249.00,618.00 249.00,618.00
             248.87,613.73 249.23,613.04 253.00,611.00
             253.00,611.00 254.00,615.00 254.00,615.00
             254.00,615.00 259.00,614.00 259.00,614.00
             259.23,609.88 260.08,609.93 264.00,610.00
             264.00,610.00 265.00,601.00 265.00,601.00
             265.00,601.00 271.00,601.00 271.00,601.00
             271.00,601.00 271.00,594.00 271.00,594.00
             278.52,593.92 280.73,592.99 281.00,585.00
             281.00,585.00 285.00,588.00 285.00,588.00
             288.77,586.49 288.69,585.95 289.00,582.00
             289.00,582.00 293.00,582.00 293.00,582.00
             293.00,582.00 292.00,586.00 292.00,586.00
             292.00,586.00 294.00,589.00 294.00,589.00
             294.00,589.00 303.00,584.00 303.00,584.00
             301.83,587.64 301.04,588.28 297.98,590.62
             291.51,595.57 289.49,594.02 282.00,594.00
             282.00,594.00 282.00,604.00 282.00,604.00
             274.26,606.79 270.79,616.71 259.00,615.00
             259.00,615.00 258.00,623.00 258.00,623.00
             258.00,623.00 269.00,620.00 269.00,620.00
             269.00,620.00 270.00,618.00 270.00,618.00
             270.00,618.00 273.00,618.00 273.00,618.00
             273.00,618.00 275.00,624.00 275.00,624.00
             285.79,620.21 283.40,617.49 288.45,614.64
             292.33,612.44 302.38,612.99 305.00,605.00
             305.00,605.00 312.00,607.00 312.00,607.00
             307.53,615.54 301.84,614.22 297.00,615.76
             292.28,617.27 292.51,618.62 287.00,618.00
             287.00,618.00 282.00,628.00 282.00,628.00
             282.00,628.00 290.00,628.00 290.00,628.00
             286.52,636.59 282.10,632.81 277.00,641.00
             277.00,641.00 285.00,642.00 285.00,642.00
             285.00,642.00 290.00,641.00 290.00,641.00
             290.00,641.00 297.00,635.00 297.00,635.00
             297.00,635.00 297.00,641.00 297.00,641.00
             297.00,641.00 301.00,642.00 301.00,642.00
             301.00,642.00 302.00,636.00 302.00,636.00
             302.00,636.00 305.00,639.00 305.00,639.00
             305.00,639.00 326.00,636.00 326.00,636.00
             325.46,637.53 325.37,638.33 324.29,639.70
             321.07,643.82 307.23,651.00 302.00,651.79
             297.62,652.45 294.86,652.03 291.00,650.00
             287.01,651.97 286.13,651.29 282.00,650.00
             278.18,656.05 276.47,651.76 271.91,651.78
             268.42,651.39 268.92,653.04 263.00,651.78
             263.00,651.78 251.00,653.00 251.00,653.00
             251.00,653.00 251.00,661.00 251.00,661.00
             251.00,661.00 255.00,661.00 255.00,661.00
             255.00,661.00 255.00,655.00 255.00,655.00
             258.02,656.17 262.41,657.19 261.00,661.00
             261.00,661.00 261.00,667.00 261.00,667.00
             261.00,667.00 257.00,665.00 257.00,665.00
             257.00,665.00 255.65,667.99 255.65,667.99
             252.93,677.04 263.95,669.00 266.00,667.99
             266.00,667.99 265.00,674.00 265.00,674.00
             265.00,674.00 269.00,677.00 269.00,677.00
             271.43,674.42 271.41,674.16 275.00,674.00
             276.22,666.29 278.52,661.98 287.00,663.00
             287.00,663.00 290.00,660.00 290.00,660.00
             290.00,660.00 291.00,665.00 291.00,665.00
             297.24,663.38 299.26,661.45 304.00,667.00
             307.14,659.00 299.58,656.16 308.00,653.00
             308.00,653.00 309.00,659.00 309.00,659.00
             317.52,655.95 319.21,655.34 320.00,646.00
             326.67,644.33 327.91,640.42 330.72,641.48
             332.93,642.32 332.60,645.17 332.40,647.00
             331.82,652.29 331.61,654.10 326.00,654.00
             326.00,654.00 331.82,664.00 331.82,664.00
             332.96,667.30 331.91,679.81 329.99,682.70
             328.86,684.42 324.89,686.51 323.00,687.81
             317.63,691.52 307.32,698.00 301.00,698.77
             296.31,699.76 294.34,697.94 291.29,698.77
             286.39,699.47 286.30,704.46 281.00,700.00
             281.00,700.00 284.00,699.00 284.00,699.00
             284.00,699.00 281.00,694.00 281.00,694.00
             281.00,694.00 277.00,695.00 277.00,695.00
             277.00,695.00 277.00,691.00 277.00,691.00
             277.00,691.00 274.00,689.00 274.00,689.00
             269.65,697.60 276.04,700.45 278.00,708.00
             270.09,704.65 269.84,701.89 260.00,701.00
             260.00,701.00 260.00,705.00 260.00,705.00
             254.51,701.95 251.58,697.17 251.00,691.00
             249.45,691.43 246.97,692.41 245.43,691.72
             241.27,689.85 245.04,683.83 236.00,685.00
             238.14,688.54 245.90,698.55 238.00,699.00
             238.00,699.00 226.00,697.00 226.00,697.00
             228.11,704.91 230.95,702.77 236.00,708.00
             236.00,708.00 240.00,707.00 240.00,707.00
             240.00,707.00 240.00,712.00 240.00,712.00
             235.26,711.33 234.22,710.48 231.00,707.00
             231.00,707.00 227.00,706.00 227.00,706.00
             227.00,706.00 226.00,710.00 226.00,710.00
             226.00,710.00 217.00,706.00 217.00,706.00
             217.00,706.00 207.03,708.98 207.03,708.98
             207.03,708.98 201.80,706.83 201.80,706.83
             201.80,706.83 192.00,706.83 192.00,706.83
             192.00,706.83 195.00,720.00 195.00,720.00
             195.00,720.00 189.00,718.00 189.00,718.00
             190.19,724.73 193.20,722.04 200.00,721.00
             199.69,724.73 199.24,728.39 195.00,725.00
             190.08,728.93 189.82,728.66 184.00,726.00
             184.00,726.00 187.00,734.00 187.00,734.00
             191.07,734.33 196.73,737.05 191.68,741.15
             189.24,743.13 185.56,742.66 183.29,743.52
             180.59,744.53 178.75,746.84 177.00,749.00
             183.63,747.89 190.42,749.89 197.00,751.00
             200.01,746.09 201.61,749.49 205.98,747.49
             209.39,745.95 210.87,742.75 212.32,741.91
             214.24,740.79 214.95,742.94 215.00,743.00
             215.00,743.00 221.00,742.00 221.00,742.00
             221.00,742.00 217.00,751.00 217.00,751.00
             217.00,751.00 224.00,749.00 224.00,749.00
             224.00,749.00 223.00,755.00 223.00,755.00
             223.00,755.00 230.55,748.38 230.55,748.38
             233.14,746.76 235.55,747.82 237.57,743.93
             239.13,740.92 239.31,729.16 244.33,727.34
             249.03,725.63 246.44,734.45 246.00,736.00
             246.00,736.00 251.00,737.00 251.00,737.00
             253.10,730.80 253.85,728.88 260.00,726.00
             260.00,726.00 260.00,718.00 260.00,718.00
             267.44,722.05 264.17,727.21 264.00,734.00
             264.00,734.00 253.95,739.11 253.95,739.11
             253.95,739.11 245.00,740.00 245.00,740.00
             245.00,740.00 245.00,745.00 245.00,745.00
             245.00,745.00 252.00,747.00 252.00,747.00
             250.25,755.01 247.45,751.24 244.00,756.00
             244.00,756.00 254.00,757.00 254.00,757.00
             257.03,752.48 258.82,755.02 262.87,753.26
             268.63,750.75 265.23,745.40 274.00,750.00
             274.00,750.00 274.00,745.00 274.00,745.00
             281.13,749.09 277.16,755.75 271.00,758.00
             266.51,751.39 261.36,760.10 256.00,762.11
             253.09,763.20 246.72,762.68 243.00,763.00
             243.00,763.00 246.00,769.00 246.00,769.00
             246.00,769.00 237.00,770.48 237.00,770.48
             237.00,770.48 226.00,771.00 226.00,771.00
             226.00,771.00 233.00,777.00 233.00,777.00
             235.61,775.76 235.51,775.53 237.91,777.00
             245.14,777.40 240.85,782.88 237.91,785.81
             233.46,790.04 231.48,789.38 226.00,789.00
             226.00,789.00 227.00,793.00 227.00,793.00
             227.00,793.00 216.00,798.00 216.00,798.00
             216.00,798.00 221.00,799.00 221.00,799.00
             221.00,799.00 221.00,802.20 221.00,802.20
             223.18,801.87 226.87,801.36 228.80,802.20
             231.34,803.77 231.69,807.12 225.00,807.00
             222.68,811.12 221.24,810.64 217.00,812.00
             217.00,812.00 222.00,812.00 222.00,812.00
             222.00,812.00 219.00,824.00 219.00,824.00
             211.31,824.08 212.50,824.09 208.00,829.00
             208.00,829.00 222.00,831.00 222.00,831.00
             222.00,831.00 223.00,826.00 223.00,826.00
             223.00,826.00 226.00,826.00 226.00,826.00
             226.00,826.00 226.00,833.00 226.00,833.00
             226.00,833.00 232.00,832.00 232.00,832.00
             232.00,832.00 237.00,828.00 237.00,828.00
             237.00,828.00 238.00,832.00 238.00,832.00
             239.83,827.02 236.64,825.10 242.00,822.00
             242.00,822.00 245.00,827.00 245.00,827.00
             243.61,816.47 243.56,815.35 254.00,812.00
             251.76,807.11 248.06,802.44 254.00,799.00
             254.00,799.00 255.00,802.00 255.00,802.00
             255.00,802.00 257.00,798.00 257.00,798.00
             257.00,798.00 262.00,802.00 262.00,802.00
             262.00,802.00 267.00,800.00 267.00,800.00
             267.00,800.00 267.00,798.00 267.00,798.00
             267.00,798.00 264.00,793.00 264.00,793.00
             271.18,791.81 272.93,786.46 273.00,780.00
             273.00,780.00 279.00,782.00 279.00,782.00
             283.38,776.41 285.14,775.93 292.00,775.00
             292.90,770.49 293.95,767.47 298.00,765.00
             294.91,762.08 289.35,758.35 287.00,764.00
             280.88,760.47 277.62,751.42 285.21,747.20
             285.21,747.20 296.65,743.98 296.65,743.98
             300.74,741.30 299.61,737.28 296.00,735.00
             296.00,735.00 296.00,732.00 296.00,732.00
             296.00,732.00 304.00,732.00 304.00,732.00
             304.00,732.00 308.00,725.00 308.00,725.00
             319.68,724.17 315.55,718.22 331.04,716.00
             331.04,716.00 331.04,727.00 331.04,727.00
             331.04,727.00 332.00,744.00 332.00,744.00
             317.51,744.72 305.34,759.74 297.95,771.00
             297.95,771.00 292.63,778.28 292.63,778.28
             288.30,784.75 286.87,788.87 278.00,788.00
             278.00,788.00 270.00,795.00 270.00,795.00
             270.00,795.00 277.00,798.00 277.00,798.00
             277.00,798.00 273.00,814.00 273.00,814.00
             273.00,814.00 269.00,814.00 269.00,814.00
             269.00,814.00 269.00,811.00 269.00,811.00
             269.00,811.00 265.00,811.00 265.00,811.00
             265.40,812.73 266.97,817.57 266.80,818.95
             265.93,825.56 257.90,820.59 254.96,818.95
             255.09,821.41 255.47,824.71 254.96,826.99
             253.37,833.36 241.99,844.26 235.00,842.44
             228.73,840.80 215.49,830.13 210.00,838.00
             210.00,838.00 215.00,838.00 215.00,838.00
             215.00,838.00 212.00,842.00 212.00,842.00
             212.00,842.00 213.00,846.00 213.00,846.00
             213.00,846.00 209.00,842.00 209.00,842.00
             203.46,844.75 201.97,842.31 197.00,840.00
             197.00,840.00 198.00,845.00 198.00,845.00
             194.79,845.28 194.27,844.94 193.00,848.00
             193.00,848.00 184.00,845.00 184.00,845.00
             184.00,845.00 185.00,851.00 185.00,851.00
             190.22,851.28 189.19,853.63 185.00,855.00
             185.00,855.00 185.00,857.00 185.00,857.00
             185.00,857.00 189.00,857.00 189.00,857.00
             188.30,865.71 184.09,864.07 183.04,869.02
             182.21,872.93 185.46,874.11 186.00,881.00
             181.80,882.45 180.23,884.83 179.00,889.00
             185.57,886.36 193.71,887.02 199.00,892.00
             199.00,892.00 202.00,891.00 202.00,891.00
             202.00,891.00 201.00,881.00 201.00,881.00
             201.00,881.00 207.00,880.00 207.00,880.00
             207.00,880.00 207.00,871.00 207.00,871.00
             207.00,871.00 214.00,871.00 214.00,871.00
             214.00,871.00 214.00,880.00 214.00,880.00
             217.21,876.65 217.79,876.65 221.00,880.00
             221.00,880.00 224.00,874.00 224.00,874.00
             224.00,874.00 221.00,865.00 221.00,865.00
             221.00,865.00 232.00,870.00 232.00,870.00
             232.00,870.00 233.00,866.00 233.00,866.00
             233.00,866.00 230.00,866.00 230.00,866.00
             230.00,866.00 230.00,863.00 230.00,863.00
             230.00,863.00 245.00,852.00 245.00,852.00
             245.00,852.00 243.00,857.00 243.00,857.00
             243.00,857.00 244.00,865.00 244.00,865.00
             244.00,865.00 248.00,866.00 248.00,866.00
             253.21,860.94 248.62,860.91 251.00,851.00
             251.00,851.00 245.00,843.00 245.00,843.00
             248.61,841.65 256.76,832.71 258.00,829.00
             258.00,829.00 265.00,830.00 265.00,830.00
             265.00,830.00 266.00,825.00 266.00,825.00
             266.00,825.00 271.00,827.00 271.00,827.00
             271.00,827.00 269.00,821.00 269.00,821.00
             269.00,821.00 276.00,823.00 276.00,823.00
             276.00,823.00 279.00,820.00 279.00,820.00
             279.00,820.00 279.00,827.00 279.00,827.00
             282.36,826.01 283.69,824.99 286.00,828.00
             288.64,824.82 288.71,824.08 289.00,820.00
             289.00,820.00 292.00,820.00 292.00,820.00
             292.00,820.00 290.00,811.00 290.00,811.00
             296.17,809.94 296.70,806.81 301.59,803.46
             303.44,802.19 306.46,800.64 307.49,798.70
             308.94,795.97 308.12,792.19 308.74,790.09
             309.87,786.24 314.72,783.83 318.00,782.02
             322.86,779.33 334.26,776.01 331.30,786.00
             331.00,787.02 330.65,787.96 330.04,788.86
             328.00,791.86 325.48,791.90 323.29,793.72
             320.99,795.64 317.88,801.13 317.00,804.00
             317.00,804.00 311.00,803.00 311.00,803.00
             309.70,807.91 309.23,809.09 304.00,809.00
             305.78,816.71 303.29,815.28 300.00,821.00
             300.00,821.00 308.00,819.00 308.00,819.00
             308.00,819.00 305.00,824.00 305.00,824.00
             305.00,824.00 310.00,828.00 310.00,828.00
             310.00,828.00 314.00,822.00 314.00,822.00
             314.00,822.00 313.00,818.00 313.00,818.00
             320.17,816.82 319.42,814.15 319.00,808.00
             319.00,808.00 329.00,812.00 329.00,812.00
             329.00,812.00 333.00,809.00 333.00,809.00
             333.00,813.40 333.59,828.53 332.16,831.68
             329.73,837.04 318.90,843.11 314.59,853.00
             310.65,862.04 310.18,875.02 298.00,876.00
             298.00,876.00 298.00,879.00 298.00,879.00
             298.00,879.00 287.00,878.00 287.00,878.00
             287.00,878.00 287.00,884.00 287.00,884.00
             287.00,884.00 282.00,883.00 282.00,883.00
             282.00,883.00 282.00,889.00 282.00,889.00
             282.00,889.00 274.00,884.00 274.00,884.00
             274.00,884.00 276.00,891.00 276.00,891.00
             276.00,891.00 273.74,892.54 273.74,892.54
             273.74,892.54 267.00,905.00 267.00,905.00
             267.00,905.00 274.00,906.00 274.00,906.00
             274.00,906.00 269.00,918.00 269.00,918.00
             269.00,918.00 273.00,920.00 273.00,920.00
             274.31,918.22 273.95,918.14 276.00,919.00
             276.00,919.00 276.00,906.00 276.00,906.00
             276.00,906.00 279.00,906.00 279.00,906.00
             279.00,906.00 283.00,920.00 283.00,920.00
             283.00,920.00 284.00,915.00 284.00,915.00
             284.00,915.00 291.00,914.00 291.00,914.00
             288.74,907.46 284.73,910.05 284.00,901.00
             284.00,901.00 288.00,904.00 288.00,904.00
             288.00,904.00 289.00,901.00 289.00,901.00
             289.00,901.00 295.00,906.00 295.00,906.00
             295.00,906.00 295.00,899.00 295.00,899.00
             295.00,899.00 299.00,899.00 299.00,899.00
             299.00,899.00 298.00,890.00 298.00,890.00
             298.00,890.00 301.00,890.00 301.00,890.00
             301.00,890.00 303.00,899.00 303.00,899.00
             310.38,903.08 307.43,906.41 309.00,913.00
             309.00,913.00 311.00,913.00 311.00,913.00
             311.00,913.00 315.00,910.00 315.00,910.00
             315.00,910.00 314.00,921.00 314.00,921.00
             314.00,921.00 317.00,921.00 317.00,921.00
             317.00,921.00 320.49,911.09 320.49,911.09
             321.06,906.09 316.22,905.72 322.00,901.00
             320.67,897.04 317.29,892.91 321.00,890.00
             320.39,887.73 320.10,885.72 317.73,884.60
             315.56,883.58 311.84,884.54 310.21,881.69
             308.64,879.47 309.62,876.27 310.21,874.00
             310.21,874.00 312.62,868.00 312.62,868.00
             314.41,862.23 313.36,859.71 318.00,855.00
             318.00,855.00 320.09,861.00 320.09,861.00
             321.60,856.64 319.75,855.01 320.09,851.00
             320.81,845.20 326.86,841.32 332.00,840.00
             332.00,840.00 331.16,871.00 331.16,871.00
             330.89,876.88 334.48,885.06 331.16,890.00
             332.30,895.86 331.84,903.01 332.04,909.00
             332.04,909.00 333.26,922.00 333.26,922.00
             333.26,922.00 332.00,949.00 332.00,949.00
             332.00,949.00 332.83,958.00 332.83,958.00
             333.47,964.74 332.56,970.40 331.58,977.00
             330.63,983.42 328.77,997.47 322.89,1001.11
             321.19,1002.16 310.41,1003.12 308.00,1003.00
             308.00,1003.00 308.00,1007.00 308.00,1007.00
             308.00,1007.00 299.00,1003.00 299.00,1003.00
             299.00,1003.00 299.00,1007.00 299.00,1007.00
             299.00,1007.00 295.00,1005.00 295.00,1005.00
             295.00,1005.00 290.00,1006.00 290.00,1006.00
             286.17,1008.38 282.34,1006.59 278.00,1006.00
             274.12,1011.80 265.83,1007.62 260.17,1007.80
             254.52,1007.57 257.94,1010.61 247.00,1007.80
             243.95,1009.53 242.33,1008.71 239.00,1008.86
             239.00,1008.86 222.00,1008.86 222.00,1008.86
             222.00,1008.86 214.00,1008.04 214.00,1008.04
             214.00,1008.04 200.00,1007.20 200.00,1007.20
             198.54,1007.07 197.46,1007.04 196.00,1007.20
             196.00,1007.20 187.00,1009.41 187.00,1009.41
             187.00,1009.41 177.00,1010.46 177.00,1010.46
             169.87,1011.75 170.58,1012.96 162.00,1013.00
             155.27,1013.03 154.50,1012.56 148.00,1015.00
             148.00,1015.00 170.00,1015.00 170.00,1015.00
             170.00,1015.00 198.00,1015.96 198.00,1015.96
             198.00,1015.96 215.00,1015.00 215.00,1015.00
             215.00,1015.00 228.00,1016.00 228.00,1016.00
             228.00,1016.00 245.00,1015.00 245.00,1015.00
             245.00,1015.00 260.00,1014.04 260.00,1014.04
             260.00,1014.04 271.00,1014.61 271.00,1014.61
             271.00,1014.61 279.00,1013.65 279.00,1013.65
             279.00,1013.65 285.00,1013.65 285.00,1013.65
             285.00,1013.65 295.00,1013.65 295.00,1013.65
             295.00,1013.65 311.00,1015.01 311.00,1015.01
             311.00,1015.01 324.00,1015.01 324.00,1015.01
             324.00,1015.01 338.00,1015.01 338.00,1015.01
             338.00,1015.01 356.00,1014.08 356.00,1014.08
             356.00,1014.08 380.00,1014.08 380.00,1014.08
             380.00,1014.08 402.00,1014.08 402.00,1014.08
             402.00,1014.08 423.00,1014.08 423.00,1014.08
             423.00,1014.08 435.00,1013.00 435.00,1013.00
             435.00,1013.00 459.00,1012.32 459.00,1012.32
             459.00,1012.32 473.00,1012.99 473.00,1012.99
             473.00,1012.99 492.00,1012.24 492.00,1012.24
             492.00,1012.24 501.00,1012.24 501.00,1012.24
             501.00,1012.24 535.00,1011.00 535.00,1011.00
             535.00,1011.00 551.00,1011.00 551.00,1011.00
             551.00,1011.00 541.00,1005.10 541.00,1005.10
             537.63,1006.08 529.39,1006.11 526.00,1005.10
             522.07,1004.13 519.88,1002.15 512.00,1001.29
             506.85,1000.73 504.79,1003.51 500.00,1000.00
             500.00,1000.00 496.00,1000.00 496.00,1000.00
             496.00,1000.00 489.72,1001.77 489.72,1001.77
             489.72,1001.77 475.72,1001.77 475.72,1001.77
             475.72,1001.77 473.00,1001.00 473.00,1001.00
             473.00,1001.00 465.00,1001.00 465.00,1001.00
             461.79,1005.67 459.84,1001.58 454.99,1001.00
             448.09,1000.19 444.03,1004.12 435.00,1000.00
             435.00,1000.00 419.00,1003.00 419.00,1003.00
             419.00,1003.00 417.00,997.00 417.00,997.00
             413.56,997.95 412.25,998.76 409.00,997.00
             409.00,997.00 404.00,998.00 404.00,998.00
             404.00,998.00 403.00,994.00 403.00,994.00
             403.00,994.00 401.00,994.00 401.00,994.00
             401.00,994.00 400.00,997.00 400.00,997.00
             392.22,995.32 394.16,995.20 387.00,998.00
             387.00,998.00 380.32,968.00 380.32,968.00
             380.32,968.00 379.68,959.00 379.68,959.00
             379.68,959.00 376.44,946.00 376.44,946.00
             376.44,946.00 375.70,937.00 375.70,937.00
             375.70,937.00 374.30,930.00 374.30,930.00
             374.30,930.00 371.83,906.00 371.83,906.00
             371.83,906.00 368.82,876.00 368.82,876.00
             368.82,876.00 368.82,867.00 368.82,867.00
             368.83,863.73 366.71,856.03 370.39,854.17
             372.60,853.05 374.62,855.48 375.74,857.06
             378.71,861.25 379.07,865.15 378.00,870.00
             378.00,870.00 379.00,871.00 379.00,871.00
             379.00,871.00 382.00,870.00 382.00,870.00
             380.26,861.71 380.48,850.41 369.00,851.00
             368.12,844.32 365.85,838.68 373.00,835.00
             373.00,835.00 372.00,841.00 372.00,841.00
             372.00,841.00 377.00,841.00 377.00,841.00
             377.00,841.00 376.00,848.00 376.00,848.00
             376.00,848.00 380.00,848.00 380.00,848.00
             381.93,854.72 384.78,854.00 386.50,858.13
             387.39,860.24 388.96,871.36 389.00,874.00
             389.05,878.10 387.75,882.23 392.00,884.00
             392.00,884.00 390.00,887.00 390.00,887.00
             390.66,890.66 390.32,896.60 393.00,899.00
             393.00,899.00 394.00,888.00 394.00,888.00
             394.00,888.00 402.00,888.00 402.00,888.00
             402.00,888.00 401.00,892.00 401.00,892.00
             401.00,892.00 404.00,895.00 404.00,895.00
             399.69,896.54 396.84,899.27 397.00,904.00
             397.00,904.00 405.00,902.00 405.00,902.00
             405.00,902.00 405.00,913.00 405.00,913.00
             405.00,913.00 409.00,915.00 409.00,915.00
             412.90,908.56 414.60,901.08 410.66,894.09
             410.66,894.09 405.75,887.91 405.75,887.91
             403.33,883.79 405.88,879.09 399.00,880.00
             399.00,880.00 395.00,868.00 395.00,868.00
             395.00,868.00 391.00,868.00 391.00,868.00
             390.29,860.70 391.59,860.24 398.00,857.00
             398.00,857.00 399.98,864.53 399.98,864.53
             399.98,864.53 404.15,869.34 404.15,869.34
             404.15,869.34 407.00,879.00 407.00,879.00
             411.39,872.67 409.45,870.40 407.00,864.00
             413.78,861.27 409.57,856.76 406.36,853.54
             405.23,852.41 404.26,850.97 402.74,850.16
             401.38,849.74 400.37,849.98 399.00,850.16
             397.15,846.40 396.87,846.17 393.00,845.00
             393.00,845.00 393.00,841.00 393.00,841.00
             393.00,841.00 397.00,841.00 397.00,841.00
             397.00,841.00 391.00,831.00 391.00,831.00
             391.00,831.00 382.00,834.00 382.00,834.00
             382.00,834.00 385.00,826.23 385.00,826.23
             385.00,826.23 377.04,826.23 377.04,826.23
             377.04,826.23 369.00,822.00 369.00,822.00
             369.00,822.00 370.00,818.00 370.00,818.00
             370.00,818.00 366.00,817.00 366.00,817.00
             366.00,817.00 369.00,807.00 369.00,807.00
             374.48,808.80 373.15,810.74 376.79,813.86
             378.97,815.73 380.86,815.75 382.59,816.96
             386.17,819.48 384.41,821.53 393.00,825.00
             396.83,819.30 404.49,823.93 404.69,829.02
             404.86,831.95 402.56,835.12 404.69,836.98
             406.20,838.35 411.86,838.00 414.00,838.00
             414.00,838.00 414.00,847.00 414.00,847.00
             414.00,847.00 420.00,845.00 420.00,845.00
             420.00,845.00 419.00,841.00 419.00,841.00
             419.00,841.00 425.00,843.00 425.00,843.00
             425.00,843.00 425.00,848.00 425.00,848.00
             425.00,848.00 430.00,846.00 430.00,846.00
             430.00,846.00 434.00,852.00 434.00,852.00
             434.00,852.00 439.00,848.00 439.00,848.00
             439.83,857.88 446.23,851.88 442.00,860.00
             442.00,860.00 447.00,860.00 447.00,860.00
             447.00,860.00 447.00,866.00 447.00,866.00
             447.00,866.00 450.00,863.00 450.00,863.00
             450.00,863.00 454.00,863.00 454.00,863.00
             454.00,863.00 451.00,868.00 451.00,868.00
             454.22,872.16 456.17,873.17 461.00,875.00
             460.11,870.02 457.86,867.35 461.00,863.00
             459.32,855.80 461.20,856.86 469.00,857.00
             469.00,857.00 465.00,847.00 465.00,847.00
             458.26,847.21 459.02,843.47 459.00,838.00
             459.00,838.00 454.00,838.00 454.00,838.00
             455.19,826.02 445.46,834.21 442.00,823.00
             437.70,823.35 434.52,823.19 432.00,827.00
             432.00,827.00 419.57,823.32 419.57,823.32
             419.57,823.32 413.00,814.00 413.00,814.00
             412.18,816.76 412.03,821.09 408.85,821.96
             404.39,823.19 400.78,819.55 399.00,816.00
             389.84,816.28 386.70,810.70 379.42,807.16
             374.98,804.99 371.64,805.55 368.13,800.81
             366.06,798.01 363.16,792.80 364.56,789.26
             366.30,784.88 370.85,788.98 371.00,795.00
             371.00,795.00 377.00,801.00 377.00,801.00
             377.00,801.00 373.00,779.00 373.00,779.00
             373.00,779.00 371.00,782.00 371.00,782.00
             363.48,780.35 364.41,776.52 363.73,770.00
             363.73,770.00 363.18,750.00 363.18,750.00
             363.18,750.00 364.00,739.00 364.00,739.00
             364.00,739.00 371.05,743.88 371.05,743.88
             375.07,746.05 381.38,747.81 384.58,750.50
             388.24,753.58 392.12,759.30 395.30,763.00
             403.37,772.42 405.55,770.47 403.00,783.00
             403.00,783.00 408.00,784.00 408.00,784.00
             408.00,784.00 405.00,793.00 405.00,793.00
             405.00,793.00 410.00,794.00 410.00,794.00
             408.84,797.88 408.57,798.92 405.00,801.00
             405.00,801.00 408.00,807.00 408.00,807.00
             408.00,807.00 416.00,802.00 416.00,802.00
             416.00,802.00 418.00,811.00 418.00,811.00
             418.00,811.00 419.00,805.00 419.00,805.00
             419.00,805.00 422.00,805.00 422.00,805.00
             422.00,805.00 422.00,809.00 422.00,809.00
             422.00,809.00 428.00,808.00 428.00,808.00
             428.00,808.00 427.00,814.00 427.00,814.00
             427.00,814.00 433.00,817.00 433.00,817.00
             433.00,817.00 433.00,812.00 433.00,812.00
             438.80,811.42 440.05,811.42 444.00,816.00
             447.83,814.66 447.67,813.91 448.00,810.00
             448.00,810.00 459.00,813.00 459.00,813.00
             459.00,813.00 458.00,821.00 458.00,821.00
             462.81,823.26 467.50,826.20 467.00,832.00
             469.58,835.66 468.34,837.77 468.00,842.00
             468.00,842.00 473.00,840.00 473.00,840.00
             473.00,840.00 474.00,844.00 474.00,844.00
             474.00,844.00 481.00,833.00 481.00,833.00
             481.00,833.00 480.00,829.00 480.00,829.00
             480.00,829.00 485.00,830.00 485.00,830.00
             485.00,830.00 493.00,827.00 493.00,827.00
             493.00,827.00 493.00,845.00 493.00,845.00
             495.83,840.62 496.76,839.32 502.00,838.00
             502.00,838.00 502.00,834.00 502.00,834.00
             502.00,834.00 508.00,837.00 508.00,837.00
             508.00,837.00 509.00,832.00 509.00,832.00
             513.14,832.69 513.71,832.96 515.00,837.00
             520.27,833.66 519.13,836.58 526.00,839.00
             526.00,839.00 530.12,836.00 530.12,836.00
             530.13,834.36 530.68,830.59 530.12,829.21
             528.65,824.24 519.38,823.20 515.00,823.00
             515.00,823.00 515.00,820.00 515.00,820.00
             515.00,820.00 521.00,819.00 521.00,819.00
             521.00,819.00 520.00,809.00 520.00,809.00
             520.00,809.00 508.00,813.00 508.00,813.00
             508.00,813.00 509.00,818.00 509.00,818.00
             502.10,814.25 502.80,808.70 504.00,802.00
             495.54,804.28 498.71,795.87 500.00,791.00
             500.00,791.00 484.00,789.00 484.00,789.00
             484.00,789.00 485.00,791.00 485.00,791.00
             485.00,791.00 481.00,789.00 481.00,789.00
             481.00,789.00 476.00,790.00 476.00,790.00
             476.00,790.00 475.00,785.00 475.00,785.00
             475.00,785.00 464.00,786.00 464.00,786.00
             464.00,786.00 462.00,778.00 462.00,778.00
             460.30,778.31 457.66,778.99 456.01,778.78
             450.11,778.05 449.40,773.01 453.00,769.00
             453.00,769.00 452.00,765.00 452.00,765.00
             446.30,767.66 445.91,762.45 445.00,758.00
             445.00,758.00 442.00,758.00 442.00,758.00
             442.00,758.00 442.00,761.00 442.00,761.00
             442.00,761.00 435.71,753.44 435.71,753.44
             435.71,753.44 426.00,754.80 426.00,754.80
             426.00,754.80 416.10,756.02 416.10,756.02
             416.10,756.02 407.00,765.00 407.00,765.00
             402.94,758.16 398.98,754.88 393.66,749.39
             390.92,746.55 388.61,743.11 385.00,741.31
             381.31,739.48 375.19,739.49 366.00,734.81
             364.70,734.14 362.59,733.33 361.60,732.28
             360.48,731.10 360.10,729.62 360.37,728.03
             361.18,723.23 365.40,723.94 369.01,724.01
             369.01,724.01 376.72,724.01 376.72,724.01
             376.72,724.01 382.04,725.14 382.04,725.14
             384.94,725.24 387.37,723.87 391.00,724.37
             393.54,724.71 398.69,726.19 395.00,729.00
             400.14,733.90 400.82,729.66 406.00,727.00
             406.00,727.00 403.00,731.00 403.00,731.00
             403.00,731.00 403.00,733.00 403.00,733.00
             403.00,733.00 413.00,742.00 413.00,742.00
             418.18,732.90 420.31,740.41 421.00,746.00
             421.00,746.00 429.00,743.00 429.00,743.00
             429.00,743.00 430.00,748.00 430.00,748.00
             430.00,748.00 435.00,745.00 435.00,745.00
             434.75,741.24 434.52,740.90 437.00,738.00
             438.03,741.61 439.78,744.69 443.13,746.66
             445.44,748.03 449.65,748.83 451.19,750.58
             452.21,751.74 453.34,756.21 454.00,758.00
             454.00,758.00 466.00,758.00 466.00,758.00
             466.00,758.00 463.78,766.77 463.78,766.77
             463.78,766.77 469.00,777.00 469.00,777.00
             469.00,777.00 473.00,772.00 473.00,772.00
             473.00,772.00 477.00,772.00 477.00,772.00
             477.00,772.00 477.00,777.00 477.00,777.00
             477.00,777.00 481.00,776.00 481.00,776.00
             480.20,781.46 480.29,782.74 486.00,783.81
             488.46,776.30 491.50,780.90 495.46,783.81
             497.42,784.96 498.81,785.28 501.00,786.00
             503.11,778.67 502.10,780.19 501.00,773.00
             505.38,774.42 505.90,775.63 507.00,780.00
             511.88,776.98 514.90,772.29 517.00,767.00
             513.00,768.41 508.25,768.90 504.08,767.69
             501.13,766.84 499.17,763.59 507.00,764.00
             500.93,758.04 499.28,759.83 499.00,752.00
             499.00,752.00 504.00,754.00 504.00,754.00
             504.00,754.00 504.00,749.00 504.00,749.00
             504.00,749.00 509.00,746.00 509.00,746.00
             509.00,746.00 492.00,743.00 492.00,743.00
             488.12,745.97 482.61,746.21 478.17,744.08
             476.00,743.04 474.53,741.12 471.96,740.98
             467.60,740.73 462.84,744.76 458.83,745.63
             456.70,746.35 455.08,745.81 453.00,745.63
             445.67,744.20 441.34,742.97 439.00,735.00
             439.00,735.00 449.00,739.00 449.00,739.00
             449.00,739.00 449.00,735.00 449.00,735.00
             460.85,740.16 453.02,736.79 463.00,738.00
             463.00,738.00 463.00,734.00 463.00,734.00
             463.00,734.00 475.00,734.00 475.00,734.00
             475.00,734.00 478.00,731.00 478.00,731.00
             478.00,731.00 477.00,727.00 477.00,727.00
             477.00,727.00 465.00,727.00 465.00,727.00
             463.22,722.10 461.45,724.13 457.43,722.65
             451.69,720.54 450.47,717.15 443.00,716.31
             436.50,715.59 435.78,718.25 432.00,715.00
             428.43,713.92 428.86,712.41 429.00,709.00
             429.00,709.00 439.00,713.00 439.00,713.00
             441.29,706.13 444.10,703.39 438.03,697.44
             436.03,695.48 434.46,694.28 432.00,693.00
             432.63,691.81 432.86,690.79 434.13,689.98
             437.27,687.95 443.99,692.35 445.65,695.06
             447.47,698.02 447.07,700.71 447.00,704.00
             447.00,704.00 450.00,704.00 450.00,704.00
             450.00,704.00 449.00,713.00 449.00,713.00
             449.00,713.00 452.00,708.00 452.00,708.00
             456.51,709.41 457.02,710.46 458.00,715.00
             461.21,712.96 461.92,712.59 464.00,716.00
             466.81,714.67 467.16,714.39 469.00,717.00
             469.00,717.00 474.00,714.00 474.00,714.00
             474.21,717.57 473.94,718.87 477.00,721.00
             477.00,721.00 477.00,715.00 477.00,715.00
             477.00,715.00 483.00,719.00 483.00,719.00
             484.99,716.03 485.51,716.29 489.00,716.00
             489.00,716.00 489.00,712.00 489.00,712.00
             489.00,712.00 498.00,713.00 498.00,713.00
             498.00,713.00 497.00,709.00 497.00,709.00
             497.00,709.00 503.00,710.00 503.00,710.00
             497.01,702.80 492.16,705.63 488.56,702.27
             486.61,700.45 486.36,697.48 486.00,695.00
             492.48,698.63 489.92,700.55 499.00,701.00
             500.62,695.22 501.97,696.65 501.00,690.00
             501.00,690.00 506.00,695.00 506.00,695.00
             506.00,695.00 514.23,685.73 514.23,685.73
             514.23,685.73 516.00,677.00 516.00,677.00
             513.14,677.32 505.70,679.01 504.02,681.38
             503.18,682.57 503.22,683.68 503.00,685.00
             495.02,685.80 491.18,686.75 484.00,690.00
             484.00,690.00 486.00,679.00 486.00,679.00
             486.00,679.00 477.00,683.00 477.00,683.00
             477.00,683.00 478.00,687.00 478.00,687.00
             478.00,687.00 474.00,684.00 474.00,684.00
             474.00,684.00 457.00,686.00 457.00,686.00
             458.90,680.86 458.94,681.51 458.00,676.00
             458.00,676.00 463.00,680.00 463.00,680.00
             463.00,680.00 465.00,680.00 465.00,680.00
             465.00,680.00 471.00,669.00 471.00,669.00
             466.43,669.84 463.65,669.30 462.00,674.00
             462.00,674.00 455.91,671.79 455.91,671.79
             455.91,671.79 428.00,677.00 428.00,677.00
             428.00,677.00 428.00,674.00 428.00,674.00
             424.05,673.95 422.34,674.50 420.00,671.00
             420.00,671.00 417.00,676.00 417.00,676.00
             413.20,675.01 409.84,672.76 406.00,672.47
             391.68,671.39 389.17,677.29 385.00,666.00
             385.00,666.00 377.00,669.00 377.00,669.00
             377.91,666.42 378.45,664.69 381.11,663.35
             386.07,660.86 389.35,665.20 390.00,657.00
             377.32,661.07 373.58,653.73 358.00,653.00
             358.07,647.73 357.68,645.97 363.00,644.00
             365.19,649.69 370.02,648.88 375.00,648.00
             375.00,648.00 375.00,651.00 375.00,651.00
             379.46,650.77 379.94,650.62 383.00,654.00
             383.00,654.00 388.00,654.00 388.00,654.00
             388.00,654.00 391.00,654.00 391.00,654.00
             393.92,651.81 393.71,651.59 394.00,648.00
             394.00,648.00 397.00,648.00 397.00,648.00
             397.00,648.00 396.00,655.00 396.00,655.00
             396.00,655.00 402.00,652.00 402.00,652.00
             402.72,656.98 404.03,657.27 408.00,660.00
             408.00,660.00 412.00,657.00 412.00,657.00
             412.00,657.00 412.00,661.00 412.00,661.00
             414.99,656.48 414.84,656.99 420.00,658.00
             420.00,658.00 423.00,653.00 423.00,653.00
             423.00,653.00 422.00,648.00 422.00,648.00
             430.58,651.29 430.10,654.37 435.00,661.00
             435.00,661.00 434.00,654.00 434.00,654.00
             439.30,655.62 439.06,656.95 440.00,662.00
             444.90,660.35 450.07,661.64 452.00,656.00
             452.00,656.00 455.00,658.00 455.00,658.00
             455.00,658.00 461.00,654.00 461.00,654.00
             455.80,652.39 451.32,651.93 447.24,647.67
             443.75,644.03 444.48,641.52 449.00,640.00
             449.82,643.31 450.10,644.13 453.00,646.00
             453.00,646.00 453.00,641.00 453.00,641.00
             453.00,641.00 457.00,641.00 457.00,641.00
             457.00,641.00 457.00,645.00 457.00,645.00
             462.27,644.82 462.69,646.46 467.00,649.00
             467.00,649.00 468.00,646.00 468.00,646.00
             468.00,646.00 473.00,649.00 473.00,649.00
             475.76,645.17 475.90,643.84 481.00,644.00
             481.00,644.00 481.00,640.00 481.00,640.00
             481.00,640.00 473.00,642.00 473.00,642.00
             473.00,642.00 475.00,639.00 475.00,639.00
             475.00,639.00 474.00,634.00 474.00,634.00
             482.49,632.08 479.92,629.30 486.00,626.00
             481.74,624.64 479.24,626.87 475.00,627.96
             460.36,631.74 467.61,631.13 453.00,631.00
             453.00,631.00 453.00,628.00 453.00,628.00
             453.00,628.00 442.00,630.01 442.00,630.01
             442.00,630.01 426.00,626.00 426.00,626.00
             428.06,619.01 429.88,621.89 430.00,613.00
             430.00,613.00 433.00,613.00 433.00,613.00
             433.00,613.00 433.00,618.00 433.00,618.00
             433.00,618.00 439.00,614.00 439.00,614.00
             439.00,614.00 440.00,617.00 440.00,617.00
             442.33,612.43 442.15,609.65 447.00,607.00
             447.00,607.00 450.00,615.00 450.00,615.00
             453.15,611.69 453.39,611.00 458.00,610.00
             458.00,610.00 457.00,614.00 457.00,614.00
             463.93,614.90 466.86,613.05 466.00,606.00
             466.00,606.00 471.00,605.00 471.00,605.00
             471.00,605.00 471.00,600.00 471.00,600.00
             464.62,599.64 461.57,598.89 461.00,592.00
             461.00,592.00 457.00,591.00 457.00,591.00
             457.00,591.00 458.00,597.00 458.00,597.00
             449.75,594.36 454.37,586.80 459.00,585.28
             462.12,584.25 465.89,586.92 469.00,588.00
             469.00,588.00 465.00,581.00 465.00,581.00
             465.00,581.00 469.00,583.00 469.00,583.00
             474.18,580.11 476.14,582.07 479.00,577.00
             479.00,577.00 472.00,575.00 472.00,575.00
             472.00,575.00 472.00,571.00 472.00,571.00
             472.00,571.00 475.00,571.00 475.00,571.00
             475.00,571.00 474.00,563.00 474.00,563.00
             474.00,563.00 478.00,564.00 478.00,564.00
             478.00,564.00 481.00,553.00 481.00,553.00
             481.00,553.00 470.58,561.49 470.58,561.49
             467.43,563.27 466.04,562.11 463.51,563.82
             459.63,566.44 458.13,571.51 452.00,569.00
             452.00,569.00 450.00,574.00 450.00,574.00
             450.00,574.00 447.00,565.00 447.00,565.00
             447.00,565.00 429.00,573.00 429.00,573.00
             430.39,563.54 439.26,566.27 441.00,556.00
             441.00,556.00 444.00,558.00 444.00,558.00
             444.00,558.00 448.00,557.00 448.00,557.00
             448.00,557.00 448.00,550.00 448.00,550.00
             448.00,550.00 439.00,550.00 439.00,550.00
             439.00,550.00 442.00,543.00 442.00,543.00
             442.00,543.00 442.00,541.00 442.00,541.00
             442.00,541.00 440.00,537.00 440.00,537.00
             440.00,537.00 443.00,540.00 443.00,540.00
             447.92,536.33 451.70,532.89 458.00,532.00
             458.00,532.00 460.00,526.00 460.00,526.00
             460.00,526.00 455.00,524.00 455.00,524.00
             451.23,524.83 449.47,526.12 446.00,524.00
             446.00,524.00 429.00,529.00 429.00,529.00
             429.00,529.00 429.00,532.00 429.00,532.00
             429.00,532.00 415.00,536.00 415.00,536.00
             414.71,537.73 414.74,539.03 413.40,540.42
             411.75,542.12 408.26,542.49 406.00,543.04
             395.68,545.52 397.55,545.00 387.00,545.00
             387.00,545.00 387.00,541.00 387.00,541.00
             394.12,538.38 387.93,537.34 400.00,536.00
             400.00,536.00 403.00,540.00 403.00,540.00
             404.12,534.93 404.92,534.49 410.00,535.00
             410.00,535.00 410.00,525.00 410.00,525.00
             410.00,525.00 413.00,527.00 413.00,527.00
             413.00,527.00 416.00,524.00 416.00,524.00
             413.81,521.61 413.19,521.07 416.00,519.00
             416.00,519.00 416.00,512.00 416.00,512.00
             416.00,512.00 405.00,518.63 405.00,518.63
             405.00,518.63 391.00,524.15 391.00,524.15
             391.00,524.15 372.00,531.54 372.00,531.54
             372.00,531.54 355.00,530.00 355.00,530.00
             355.00,530.00 355.00,527.00 355.00,527.00
             355.00,527.00 351.00,527.00 351.00,527.00
             351.00,527.00 351.00,514.00 351.00,514.00
             351.00,514.00 355.00,514.00 355.00,514.00
             355.00,514.00 355.64,522.93 355.64,522.93
             355.64,522.93 363.00,525.00 363.00,525.00
             366.23,522.90 366.29,521.68 367.00,518.00
             367.00,518.00 373.00,518.00 373.00,518.00
             373.00,518.00 374.00,509.00 374.00,509.00
             377.57,509.92 381.86,509.25 384.00,512.00
             384.00,512.00 392.00,512.00 392.00,512.00
             386.21,500.94 384.20,508.01 375.59,504.62
             369.41,502.19 370.87,500.20 365.00,498.00
             365.00,498.00 367.00,491.00 367.00,491.00
             367.00,491.00 370.00,491.00 370.00,491.00
             370.00,491.00 370.00,494.00 370.00,494.00
             377.77,495.30 376.78,500.68 387.00,501.00
             387.00,501.00 386.00,496.00 386.00,496.00
             386.00,496.00 390.00,496.00 390.00,496.00
             390.00,496.00 392.00,502.00 392.00,502.00
             396.63,502.25 396.65,503.73 397.00,508.00
             399.80,507.23 400.19,506.56 402.00,509.00
             402.00,509.00 405.00,508.00 405.00,508.00
             405.00,508.00 404.00,504.00 404.00,504.00
             404.00,504.00 408.00,508.00 408.00,508.00
             408.00,508.00 411.00,504.00 411.00,504.00
             411.00,504.00 407.00,499.00 407.00,499.00
             407.00,499.00 399.00,495.00 399.00,495.00
             402.07,493.93 401.93,494.07 403.00,491.00
             399.58,490.43 396.91,489.90 399.00,486.00
             399.00,486.00 399.00,477.00 399.00,477.00
             399.00,477.00 403.00,478.00 403.00,478.00
             403.00,478.00 406.00,476.00 406.00,476.00
             406.00,476.00 406.00,480.00 406.00,480.00
             406.00,480.00 410.00,480.00 410.00,480.00
             410.00,480.00 407.00,483.00 407.00,483.00
             407.00,483.00 408.00,488.00 408.00,488.00
             408.00,488.00 411.00,488.00 411.00,488.00
             411.05,492.16 410.50,493.38 414.00,496.00
             414.00,496.00 418.00,493.00 418.00,493.00
             418.00,493.00 417.00,489.00 417.00,489.00
             417.00,489.00 422.00,494.00 422.00,494.00
             422.00,494.00 427.00,488.00 427.00,488.00
             427.00,488.00 423.00,482.00 423.00,482.00
             423.00,482.00 429.12,484.30 429.12,484.30
             429.12,484.30 438.00,483.00 438.00,483.00
             438.00,483.00 438.00,490.00 438.00,490.00
             438.00,490.00 445.00,492.00 445.00,492.00
             445.00,492.00 443.00,487.00 443.00,487.00
             443.00,487.00 449.00,488.00 449.00,488.00
             450.79,480.49 451.09,477.26 460.00,482.00
             460.00,482.00 462.00,475.00 462.00,475.00
             462.00,475.00 452.00,473.00 452.00,473.00
             448.56,477.71 443.50,473.13 444.00,467.00
             438.65,464.58 437.49,464.04 437.00,458.00
             448.92,456.32 444.85,455.00 452.00,451.00
             452.00,451.00 453.00,445.00 453.00,445.00
             450.24,441.99 450.81,441.71 452.00,438.00
             450.39,438.29 446.71,438.88 445.37,439.53
             443.21,440.59 442.06,442.78 439.90,443.79
             435.51,445.83 432.33,442.17 430.00,439.00
             430.00,439.00 426.00,440.00 426.00,440.00
             426.00,440.00 425.00,430.00 425.00,430.00
             425.00,430.00 432.00,434.00 432.00,434.00
             432.00,434.00 438.00,428.00 438.00,428.00
             438.00,428.00 435.00,426.00 435.00,426.00
             429.65,428.99 428.54,427.48 424.28,429.31
             421.28,430.61 416.36,434.79 410.00,436.88
             403.95,438.87 400.71,432.93 398.00,442.00
             398.00,442.00 386.03,439.51 386.03,439.51
             386.03,439.51 372.96,443.60 372.96,443.60
             372.96,443.60 352.00,440.00 352.00,440.00
             352.00,440.00 352.00,437.00 352.00,437.00
             352.00,437.00 346.87,437.00 346.87,437.00
             346.87,437.00 346.87,428.00 346.87,428.00
             346.87,428.00 345.09,420.00 345.09,420.00
             345.09,420.00 345.09,407.00 345.09,407.00
             345.09,407.00 348.00,407.00 348.00,407.00
             348.85,413.04 350.09,413.81 356.00,414.00
             356.00,414.00 359.00,421.00 359.00,421.00
             359.00,421.00 356.00,419.00 356.00,419.00
             356.00,419.00 355.00,425.00 355.00,425.00
             355.00,425.00 364.00,422.00 364.00,422.00
             364.00,422.00 363.00,431.00 363.00,431.00
             367.58,428.11 370.95,428.10 374.00,433.00
             374.00,433.00 381.00,433.00 381.00,433.00
             381.00,433.00 380.00,425.00 380.00,425.00
             380.00,425.00 388.00,425.00 388.00,425.00
             388.00,425.00 388.00,429.00 388.00,429.00
             388.00,429.00 394.00,427.00 394.00,427.00
             394.00,427.00 394.00,434.00 394.00,434.00
             398.30,432.90 399.25,432.47 400.00,428.00
             400.00,428.00 405.00,428.00 405.00,428.00
             405.00,428.00 401.00,415.00 401.00,415.00
             401.00,415.00 406.00,416.00 406.00,416.00
             406.00,416.00 405.00,420.00 405.00,420.00
             408.39,422.82 408.41,423.37 413.00,423.00
             413.00,423.00 409.00,413.00 409.00,413.00
             415.23,412.10 419.09,410.46 421.00,404.00
             421.00,404.00 413.88,405.87 413.88,405.87
             413.88,405.87 404.00,405.87 404.00,405.87
             404.00,405.87 404.00,400.00 404.00,400.00
             404.00,400.00 401.00,400.00 401.00,400.00
             401.00,400.00 401.00,396.00 401.00,396.00
             404.95,396.05 406.66,395.50 409.00,399.00
             409.00,399.00 411.00,393.00 411.00,393.00
             411.00,393.00 414.00,393.00 414.00,393.00
             414.00,393.00 415.59,395.98 415.59,395.98
             415.59,395.98 427.00,400.00 427.00,400.00
             427.00,400.00 428.00,393.00 428.00,393.00
             428.00,393.00 433.00,397.00 433.00,397.00
             437.81,395.17 438.63,393.37 444.00,394.00
             446.65,391.47 447.69,390.70 450.00,394.00
             453.70,390.29 453.79,390.49 459.00,391.00
             459.00,391.00 458.00,387.00 458.00,387.00
             458.00,387.00 461.00,389.00 461.00,389.00
             462.26,382.60 453.87,380.24 449.00,380.00
             449.00,380.00 449.00,386.00 449.00,386.00
             449.00,386.00 445.00,386.00 445.00,386.00
             442.91,379.98 438.24,381.62 433.00,382.00
             433.00,382.00 434.00,378.00 434.00,378.00
             444.79,379.30 441.21,370.43 453.00,367.00
             453.00,367.00 453.00,365.00 453.00,365.00
             448.36,365.02 445.71,364.12 444.00,369.00
             440.26,367.60 436.21,367.30 434.00,364.00
             434.00,364.00 428.00,365.00 428.00,365.00
             428.00,365.00 428.00,351.00 428.00,351.00
             428.00,351.00 422.00,352.00 422.00,352.00
             418.79,357.68 411.14,360.18 405.44,362.61
             400.25,364.82 400.21,366.30 394.00,367.00
             394.00,367.00 394.00,362.00 394.00,362.00
             394.00,362.00 398.00,363.00 398.00,363.00
             398.00,363.00 400.00,356.00 400.00,356.00
             400.00,356.00 404.00,356.00 404.00,356.00
             404.00,356.00 404.00,352.00 404.00,352.00
             404.00,352.00 410.00,351.00 410.00,351.00
             410.00,351.00 406.00,344.00 406.00,344.00
             409.01,344.96 410.04,345.99 411.00,349.00
             411.00,349.00 420.00,350.00 420.00,350.00
             419.33,342.89 420.42,339.88 428.00,339.00
             428.00,339.00 427.00,335.00 427.00,335.00
             427.00,335.00 434.00,337.00 434.00,337.00
             428.08,329.97 426.23,334.05 418.00,336.00
             420.43,331.71 422.18,332.44 422.00,327.00
             422.00,327.00 411.16,332.96 411.16,332.96
             411.16,332.96 404.00,331.00 404.00,331.00
             400.27,339.92 397.08,335.72 396.00,345.00
             396.00,345.00 385.00,343.00 385.00,343.00
             385.00,343.00 385.00,336.00 385.00,336.00
             385.00,336.00 389.00,336.00 389.00,336.00
             389.00,336.00 385.00,329.00 385.00,329.00
             385.00,329.00 390.00,329.00 390.00,329.00
             390.00,329.00 389.00,333.00 389.00,333.00
             391.47,330.78 390.96,329.19 391.00,326.00
             391.00,326.00 394.00,326.00 394.00,326.00
             394.00,326.00 394.00,331.00 394.00,331.00
             394.00,331.00 398.00,329.00 398.00,329.00
             398.00,329.00 397.00,320.00 397.00,320.00
             397.00,320.00 405.00,321.00 405.00,321.00
             405.00,321.00 404.00,316.00 404.00,316.00
             399.10,316.35 387.12,321.62 382.57,324.31
             378.31,326.83 372.94,330.60 368.00,328.00
             364.03,328.90 363.26,329.75 360.00,327.00
             354.67,328.30 353.54,326.09 354.00,321.00
             354.00,321.00 356.00,322.00 356.00,322.00
             356.00,322.00 356.00,323.00 356.00,323.00
             356.00,323.00 361.00,322.00 361.00,322.00
             361.00,322.00 361.00,316.00 361.00,316.00
             361.00,316.00 366.55,321.79 366.55,321.79
             366.55,321.79 373.00,321.79 373.00,321.79
             374.94,318.76 375.28,318.93 379.00,319.00
             381.20,314.74 383.07,312.38 388.00,314.00
             391.62,311.74 391.92,311.72 396.00,313.00
             396.00,313.00 397.00,308.00 397.00,308.00
             389.17,309.91 376.53,311.30 372.00,303.00
             372.00,303.00 384.26,298.18 384.26,298.18
             384.26,298.18 390.00,290.00 390.00,290.00
             390.00,290.00 390.00,295.00 390.00,295.00
             390.00,295.00 394.00,299.00 394.00,299.00
             395.26,296.19 395.27,292.63 399.00,294.00
             399.00,294.00 406.00,296.00 406.00,296.00
             406.00,296.00 406.00,291.00 406.00,291.00
             414.98,292.23 418.15,296.84 422.00,285.00
             422.00,285.00 426.00,286.00 426.00,286.00
             426.00,286.00 429.00,281.00 429.00,281.00
             429.00,281.00 417.00,283.00 417.00,283.00
             417.00,283.00 417.00,287.00 417.00,287.00
             417.00,287.00 409.00,287.00 409.00,287.00
             409.00,287.00 405.00,271.00 405.00,271.00
             405.00,271.00 409.00,274.00 409.00,274.00
             409.00,274.00 415.00,258.00 415.00,258.00
             415.00,258.00 412.00,255.00 412.00,255.00
             412.00,255.00 416.00,257.00 416.00,257.00
             416.00,257.00 418.00,252.00 418.00,252.00
             410.28,252.22 407.41,260.67 399.71,262.05
             396.58,262.60 396.97,260.56 384.00,263.00
             384.00,263.00 384.00,259.00 384.00,259.00
             384.00,259.00 392.00,259.00 392.00,259.00
             392.00,259.00 392.00,255.00 392.00,255.00
             400.30,253.70 402.91,252.57 402.00,244.00
             402.00,244.00 418.42,242.97 418.42,242.97
             418.42,242.97 422.00,238.00 422.00,238.00
             408.60,232.68 397.70,245.06 394.00,231.00
             394.00,231.00 402.00,231.00 402.00,231.00
             402.00,231.00 403.15,225.00 403.15,225.00
             403.15,225.00 403.15,223.00 403.15,223.00
             402.55,221.76 401.89,221.03 403.15,219.87
             406.17,217.83 409.52,220.77 412.00,222.00
             412.00,222.00 407.32,212.26 407.32,212.26
             407.32,212.26 413.00,207.00 413.00,207.00
             407.30,206.07 406.45,204.61 407.00,199.00
             407.00,199.00 404.00,195.00 404.00,195.00
             399.67,200.98 401.65,203.85 396.00,207.00
             396.00,207.00 396.00,211.00 396.00,211.00
             388.10,213.62 387.23,221.58 378.00,224.00
             378.00,224.00 380.00,219.00 380.00,219.00
             380.00,219.00 379.00,213.00 379.00,213.00
             373.42,217.54 373.71,219.55 366.00,220.00
             366.00,220.00 371.00,209.00 371.00,209.00
             363.45,210.44 358.82,214.44 355.00,205.00
             355.00,205.00 364.00,202.00 364.00,202.00
             364.00,202.00 360.00,190.00 360.00,190.00
             360.00,190.00 369.00,193.00 369.00,193.00
             369.00,193.00 367.00,203.00 367.00,203.00
             367.00,203.00 372.00,203.00 372.00,203.00
             377.99,195.69 378.16,200.69 383.72,199.40
             383.72,199.40 389.00,197.00 389.00,197.00
             389.00,197.00 390.00,200.00 390.00,200.00
             390.00,200.00 397.00,187.00 397.00,187.00
             390.43,184.81 382.83,190.11 379.00,182.00
             382.54,181.38 382.80,181.42 384.00,178.00
             384.00,178.00 389.00,181.00 389.00,181.00
             389.00,181.00 391.00,177.00 391.00,177.00
             391.00,177.00 394.00,177.00 394.00,177.00
             394.00,177.00 395.00,180.00 395.00,180.00
             395.00,180.00 402.00,171.00 402.00,171.00
             402.55,173.87 402.29,173.87 405.00,175.00
             405.00,175.00 404.00,170.00 404.00,170.00
             404.00,170.00 410.00,171.00 410.00,171.00
             410.00,171.00 412.00,165.00 412.00,165.00
             407.70,166.54 402.72,169.39 398.01,168.74
             394.04,168.18 390.71,164.34 397.00,164.00
             397.00,164.00 399.00,159.00 399.00,159.00
             399.00,159.00 396.00,155.00 396.00,155.00
             396.00,155.00 403.00,155.00 403.00,155.00
             403.00,155.00 398.00,139.00 398.00,139.00
             395.36,142.18 395.29,142.92 395.00,147.00
             395.00,147.00 390.00,147.00 390.00,147.00
             388.34,153.85 387.87,158.46 381.00,162.00
             381.00,162.00 380.00,154.00 380.00,154.00
             380.00,154.00 368.88,155.37 368.88,155.37
             368.88,155.37 364.90,155.37 364.90,155.37
             364.90,155.37 364.90,148.00 364.90,148.00
             368.96,146.69 369.12,146.00 370.00,142.00
             370.00,142.00 374.00,142.00 374.00,142.00
             372.44,151.20 374.91,151.04 383.00,150.00
             383.00,150.00 383.00,143.00 383.00,143.00
             383.00,143.00 388.00,143.00 388.00,143.00
             388.00,143.00 384.00,137.00 384.00,137.00
             384.00,137.00 390.00,139.00 390.00,139.00
             390.69,133.97 388.61,132.37 384.00,131.00
             384.00,131.00 387.00,127.00 387.00,127.00
             380.95,124.67 380.10,129.82 377.00,126.00
             377.00,126.00 369.00,129.00 369.00,129.00
             366.76,125.76 365.66,126.46 362.00,127.00
             363.93,123.79 364.39,123.79 368.00,123.00
             368.00,123.00 367.00,119.00 367.00,119.00
             367.00,119.00 372.00,119.00 372.00,119.00
             372.00,119.00 374.00,114.00 374.00,114.00
             374.00,114.00 359.00,118.00 359.00,118.00
             360.64,112.24 363.32,111.56 367.00,107.00
             357.67,107.58 360.27,103.80 358.50,98.28
             358.50,98.28 356.00,92.00 356.00,92.00
             361.09,92.87 361.05,94.10 364.00,98.00
             364.00,98.00 365.00,95.00 365.00,95.00
             365.00,95.00 369.00,95.00 369.00,95.00
             369.00,95.00 371.00,90.00 371.00,90.00
             371.00,90.00 367.00,86.00 367.00,86.00
             367.00,86.00 373.00,89.00 373.00,89.00
             373.00,89.00 375.00,78.00 375.00,78.00
             363.87,81.30 356.11,96.36 350.00,84.00
             350.00,84.00 355.00,87.00 355.00,87.00
             355.00,87.00 359.00,86.00 359.00,86.00
             357.19,79.93 358.68,80.86 363.00,76.00
             363.00,76.00 356.00,76.00 356.00,76.00
             356.00,76.00 359.00,71.00 359.00,71.00
             357.30,69.42 353.46,65.26 351.70,64.61
             347.09,62.90 344.76,67.43 342.00,60.00
             342.00,60.00 345.00,59.00 345.00,59.00
             341.12,58.47 338.59,60.88 336.37,59.77
             330.68,56.92 343.67,52.48 345.00,52.00
             345.00,52.00 342.00,48.00 342.00,48.00
             336.82,50.50 334.38,48.07 333.00,43.00
             333.00,43.00 342.00,45.00 342.00,45.00
             342.00,45.00 340.00,41.00 340.00,41.00
             340.00,41.00 345.00,41.00 345.00,41.00
             345.00,41.00 343.00,35.00 343.00,35.00
             343.00,35.00 332.00,39.00 332.00,39.00
             332.00,39.00 333.00,30.00 333.00,30.00
             328.34,27.38 327.52,22.03 327.00,17.00
             327.00,17.00 325.00,17.00 325.00,17.00 Z
           M 364.00,217.00
           C 364.00,217.00 364.00,218.00 364.00,218.00
             364.00,218.00 363.00,217.00 363.00,217.00
             363.00,217.00 364.00,217.00 364.00,217.00 Z
           M 247.00,310.00
           C 247.00,310.00 247.00,311.00 247.00,311.00
             247.00,311.00 246.00,310.00 246.00,310.00
             246.00,310.00 247.00,310.00 247.00,310.00 Z
           M 378.00,400.77
           C 378.00,400.77 375.47,405.62 375.47,405.62
             375.47,405.62 367.00,405.62 367.00,405.62
             367.00,405.62 360.00,404.68 360.00,404.68
             360.00,404.68 351.00,403.00 351.00,403.00
             351.04,399.11 350.68,394.86 355.09,393.42
             356.79,392.55 358.03,392.61 359.53,393.42
             361.98,395.34 363.28,399.26 366.21,400.77
             369.31,401.90 372.23,399.83 378.00,400.77 Z
           M 322.00,418.00
           C 322.00,418.00 324.00,414.00 324.00,414.00
             324.00,414.00 330.00,415.00 330.00,415.00
             327.19,425.82 324.69,426.78 314.00,425.00
             312.18,429.65 309.29,428.67 305.00,428.00
             305.00,428.00 305.00,432.00 305.00,432.00
             301.40,431.34 294.48,431.60 292.23,429.95
             283.34,423.46 296.25,416.30 302.00,415.00
             302.00,415.00 301.00,419.00 301.00,419.00
             310.68,420.06 307.32,418.19 315.00,416.00
             315.00,416.00 316.00,419.00 316.00,419.00
             316.00,419.00 316.00,410.00 316.00,410.00
             321.28,410.91 320.71,413.22 322.00,418.00 Z
           M 405.00,411.00
           C 405.00,411.00 405.00,412.00 405.00,412.00
             405.00,412.00 404.00,411.00 404.00,411.00
             404.00,411.00 405.00,411.00 405.00,411.00 Z
           M 298.00,451.00
           C 298.00,451.00 298.00,454.00 298.00,454.00
             298.00,454.00 302.00,454.00 302.00,454.00
             302.00,454.00 300.00,460.00 300.00,460.00
             300.00,460.00 296.00,460.00 296.00,460.00
             293.94,455.42 290.94,452.24 298.00,451.00 Z
           M 447.00,453.00
           C 447.00,453.00 447.00,454.00 447.00,454.00
             447.00,454.00 446.00,453.00 446.00,453.00
             446.00,453.00 447.00,453.00 447.00,453.00 Z
           M 427.00,472.00
           C 427.00,472.00 432.00,472.85 432.00,472.85
             433.91,473.33 439.72,475.44 437.83,478.42
             436.67,480.25 428.80,480.18 427.00,472.00 Z
           M 328.00,502.00
           C 329.64,508.73 329.14,526.29 329.00,534.00
             328.90,539.05 328.64,540.61 324.00,543.00
             324.00,543.00 324.00,539.00 324.00,539.00
             324.00,539.00 319.00,539.00 319.00,539.00
             316.43,546.40 310.83,542.70 310.00,553.00
             310.00,553.00 302.90,558.75 302.90,558.75
             302.90,558.75 296.17,558.75 296.17,558.75
             296.17,558.75 288.00,561.00 288.00,561.00
             288.00,561.00 289.17,554.57 289.17,554.57
             289.17,554.57 299.00,551.50 299.00,551.50
             299.00,551.50 303.00,553.00 303.00,553.00
             303.00,553.00 305.00,545.00 305.00,545.00
             305.00,545.00 309.00,545.00 309.00,545.00
             309.00,545.00 312.00,541.00 312.00,541.00
             312.00,541.00 305.84,537.37 305.84,537.37
             300.36,534.87 298.52,536.08 297.00,529.00
             297.00,529.00 303.30,520.58 303.30,520.58
             303.30,520.58 309.25,517.15 309.25,517.15
             309.25,517.15 316.91,508.81 316.91,508.81
             316.91,508.81 325.00,502.00 325.00,502.00
             325.00,502.00 328.00,502.00 328.00,502.00 Z
           M 304.00,547.00
           C 297.62,548.39 296.44,546.01 295.00,540.00
             300.73,540.54 302.71,541.10 304.00,547.00 Z
           M 333.00,556.00
           C 333.00,559.25 333.60,570.18 332.01,572.59
             329.56,575.88 322.58,575.25 319.69,572.59
             316.21,569.75 317.75,567.16 316.62,564.70
             315.54,562.36 314.31,562.60 313.00,558.67
             313.00,558.67 320.00,558.67 320.00,558.67
             320.00,558.67 325.58,558.67 325.58,558.67
             325.58,558.67 333.00,556.00 333.00,556.00 Z
           M 363.00,665.00
           C 363.00,665.00 369.00,663.00 369.00,663.00
             369.00,663.00 367.00,669.00 367.00,669.00
             367.00,669.00 371.00,669.00 371.00,669.00
             371.00,669.00 371.00,673.00 371.00,673.00
             371.00,673.00 367.00,676.00 367.00,676.00
             367.00,676.00 372.00,676.00 372.00,676.00
             372.00,676.00 372.00,680.00 372.00,680.00
             372.00,680.00 364.00,688.00 364.00,688.00
             367.22,689.40 366.38,690.15 365.00,693.00
             365.00,693.00 376.00,692.00 376.00,692.00
             376.00,692.00 377.00,693.00 377.00,693.00
             377.00,693.00 376.00,695.00 376.00,695.00
             376.00,695.00 387.00,691.00 387.00,691.00
             388.58,693.71 390.85,697.69 394.17,698.48
             396.64,699.07 398.53,697.54 400.72,697.75
             402.51,697.92 410.26,701.92 411.41,703.30
             412.52,704.65 412.54,705.47 413.00,707.00
             413.00,707.00 398.00,704.00 398.00,704.00
             398.87,707.91 398.77,708.48 395.00,710.00
             395.70,711.42 396.82,713.45 397.14,714.99
             398.02,719.16 395.10,721.31 391.28,721.69
             385.54,722.27 378.47,719.87 373.00,718.48
             370.33,717.80 364.50,717.24 362.74,715.41
             360.74,713.33 361.11,709.67 360.91,707.00
             360.06,695.47 360.16,700.35 360.91,689.00
             361.43,681.18 359.66,681.60 359.11,676.91
             359.11,676.91 358.59,670.00 358.59,670.00
             358.59,670.00 356.00,662.00 356.00,662.00
             356.00,662.00 363.00,665.00 363.00,665.00 Z
           M 332.00,688.00
           C 332.00,688.00 332.00,714.00 332.00,714.00
             321.86,714.83 322.88,715.69 314.72,719.84
             314.72,719.84 307.42,723.11 307.42,723.11
             304.74,724.62 295.69,729.56 293.01,729.36
             288.56,729.02 287.60,724.57 287.00,721.00
             292.32,720.62 295.55,717.43 299.00,723.00
             299.53,717.98 297.24,712.22 300.05,707.00
             302.26,702.91 307.19,701.43 311.00,699.29
             319.04,694.79 321.89,690.03 332.00,688.00 Z
           M 331.00,750.00
           C 331.00,750.00 331.98,764.99 331.98,764.99
             331.90,767.04 331.89,768.58 330.43,770.20
             330.43,770.20 311.56,780.58 311.56,780.58
             308.56,781.92 304.24,783.78 301.60,780.58
             298.40,776.90 302.56,771.42 304.86,768.29
             312.13,758.39 317.61,750.33 331.00,750.00 Z" />
</svg>
